<mxfile host="app.diagrams.net" modified="2023-01-30T07:00:16.981Z" agent="5.0 (Macintosh; Intel Mac OS X 10_15_2) AppleWebKit/537.36 (KHTML, like Gecko) Chrome/109.0.0.0 Safari/537.36" etag="JZlHvuVgaIXhNa-yMLnY" version="20.8.13" type="github">
  <diagram name="第 1 页" id="vktO2JJBxtBMkzWxxFkI">
    <mxGraphModel dx="954" dy="569" grid="1" gridSize="10" guides="1" tooltips="1" connect="1" arrows="1" fold="1" page="1" pageScale="1" pageWidth="827" pageHeight="1169" math="0" shadow="0">
      <root>
        <mxCell id="0" />
        <mxCell id="1" parent="0" />
        <mxCell id="MBUJ9Oalb3AoI1f_l5G1-1" value="" style="shape=note;whiteSpace=wrap;html=1;backgroundOutline=1;darkOpacity=0.05;strokeWidth=2;" vertex="1" parent="1">
          <mxGeometry x="180" y="180" width="150" height="220" as="geometry" />
        </mxCell>
        <mxCell id="MBUJ9Oalb3AoI1f_l5G1-2" value="" style="shape=note;whiteSpace=wrap;html=1;backgroundOutline=1;darkOpacity=0.05;strokeWidth=2;" vertex="1" parent="1">
          <mxGeometry x="430" y="180" width="150" height="220" as="geometry" />
        </mxCell>
        <mxCell id="MBUJ9Oalb3AoI1f_l5G1-5" value="" style="curved=1;endArrow=classic;html=1;rounded=0;strokeWidth=2;" edge="1" parent="1">
          <mxGeometry width="50" height="50" relative="1" as="geometry">
            <mxPoint x="350" y="330" as="sourcePoint" />
            <mxPoint x="400" y="280" as="targetPoint" />
            <Array as="points">
              <mxPoint x="400" y="330" />
              <mxPoint x="350" y="280" />
            </Array>
          </mxGeometry>
        </mxCell>
        <mxCell id="MBUJ9Oalb3AoI1f_l5G1-6" value="" style="shape=image;verticalLabelPosition=bottom;labelBackgroundColor=default;verticalAlign=top;aspect=fixed;imageAspect=0;image=data:image/jpeg,/9j/4AAQSkZJRgABAQAASABIAAD/4QBMRXhpZgAATU0AKgAAAAgAAgESAAMAAAABAAEAAIdpAAQAAAABAAAAJgAAAAAAAqACAAQAAAABAAACzKADAAQAAAABAAABpwAAAAD/7QA4UGhvdG9zaG9wIDMuMAA4QklNBAQAAAAAAAA4QklNBCUAAAAAABDUHYzZjwCyBOmACZjs+EJ+/+ICNElDQ19QUk9GSUxFAAEBAAACJGFwcGwEAAAAbW50clJHQiBYWVogB+EABwAHAA0AFgAgYWNzcEFQUEwAAAAAQVBQTAAAAAAAAAAAAAAAAAAAAAAAAPbWAAEAAAAA0y1hcHBsyhqVgiV/EE04mRPV0eoVggAAAAAAAAAAAAAAAAAAAAAAAAAAAAAAAAAAAAAAAAAKZGVzYwAAAPwAAABlY3BydAAAAWQAAAAjd3RwdAAAAYgAAAAUclhZWgAAAZwAAAAUZ1hZWgAAAbAAAAAUYlhZWgAAAcQAAAAUclRSQwAAAdgAAAAgY2hhZAAAAfgAAAAsYlRSQwAAAdgAAAAgZ1RSQwAAAdgAAAAgZGVzYwAAAAAAAAALRGlzcGxheSBQMwAAAAAAAAAAAAAAAAAAAAAAAAAAAAAAAAAAAAAAAAAAAAAAAAAAAAAAAAAAAAAAAAAAAAAAAAAAAAAAAAAAAAAAAAAAAAAAAAAAAAAAAAAAAAB0ZXh0AAAAAENvcHlyaWdodCBBcHBsZSBJbmMuLCAyMDE3AABYWVogAAAAAAAA81EAAQAAAAEWzFhZWiAAAAAAAACD3wAAPb////+7WFlaIAAAAAAAAEq/AACxNwAACrlYWVogAAAAAAAAKDgAABELAADIuXBhcmEAAAAAAAMAAAACZmYAAPKnAAANWQAAE9AAAApbc2YzMgAAAAAAAQxCAAAF3v//8yYAAAeTAAD9kP//+6L///2jAAAD3AAAwG7/wAARCAGnAswDASIAAhEBAxEB/8QAHwAAAQUBAQEBAQEAAAAAAAAAAAECAwQFBgcICQoL/8QAtRAAAgEDAwIEAwUFBAQAAAF9AQIDAAQRBRIhMUEGE1FhByJxFDKBkaEII0KxwRVS0fAkM2JyggkKFhcYGRolJicoKSo0NTY3ODk6Q0RFRkdISUpTVFVWV1hZWmNkZWZnaGlqc3R1dnd4eXqDhIWGh4iJipKTlJWWl5iZmqKjpKWmp6ipqrKztLW2t7i5usLDxMXGx8jJytLT1NXW19jZ2uHi4+Tl5ufo6erx8vP09fb3+Pn6/8QAHwEAAwEBAQEBAQEBAQAAAAAAAAECAwQFBgcICQoL/8QAtREAAgECBAQDBAcFBAQAAQJ3AAECAxEEBSExBhJBUQdhcRMiMoEIFEKRobHBCSMzUvAVYnLRChYkNOEl8RcYGRomJygpKjU2Nzg5OkNERUZHSElKU1RVVldYWVpjZGVmZ2hpanN0dXZ3eHl6goOEhYaHiImKkpOUlZaXmJmaoqOkpaanqKmqsrO0tba3uLm6wsPExcbHyMnK0tPU1dbX2Nna4uPk5ebn6Onq8vP09fb3+Pn6/9sAQwACAgICAgIDAgIDBAMDAwQFBAQEBAUHBQUFBQUHCAcHBwcHBwgICAgICAgICgoKCgoKCwsLCwsNDQ0NDQ0NDQ0N/9sAQwECAgIDAwMGAwMGDQkHCQ0NDQ0NDQ0NDQ0NDQ0NDQ0NDQ0NDQ0NDQ0NDQ0NDQ0NDQ0NDQ0NDQ0NDQ0NDQ0NDQ0N/90ABAAt/9oADAMBAAIRAxEAPwD9/KwtZ8QadokRe+mWM4yAat6pfw6daPPMwUAHBJ74rxnQ9MuvG9/NeaqCbWCQrscY3LnjFbU6afvS2PMx2NnTlGjQV5y28vU1JvHniedy+kaZ9pgPKOP4hVb/AITjx9/0Aj+dev2Gn2mnQLbWaCONBgAdqvU/aw6RMVl+KkryxDT8krfkeJf8Jx4+/wCgEfzo/wCE48ff9AI/nXttFHtYfyh/ZuI/6CJfcv8AI8S/4Tjx9/0Aj+dH/CcePv8AoBH869too9rD+UP7NxH/AEES+5f5HiX/AAnHj7/oBH86P+E48ff9AI/nXttFHtYfyh/ZuI/6CJfcv8jxL/hOPH3/AEAj+dH/AAnHj7/oBH869too9rD+UP7NxH/QRL7l/keJf8Jx4+/6AR/Oj/hOPH3/AEAj+de20Ue1h/KH9m4j/oIl9y/yPEv+E48ff9AI/nR/wnHj7/oBH869too9rD+UP7NxH/QRL7l/keJf8Jx4+/6AR/Oj/hOPH3/QCP517bRR7WH8of2biP8AoIl9y/yPEv8AhOPH3/QCP50f8Jx4+/6AR/OvbaKPaw/lD+zcR/0ES+5f5HiX/CcePv8AoBH86P8AhOPH3/QCP517bRR7WH8of2biP+giX3L/ACPEv+E48ff9AI/nR/wnHj7/AKAR/OvbaKPaw/lD+zcR/wBBEvuX+R4l/wAJx4+/6AR/Oj/hOPH3/QCP517bRR7WH8of2biP+giX3L/I8S/4Tjx9/wBAI/nR/wAJx4+/6AR/OvbaKPaw/lD+zcR/0ES+5f5HiX/CcePv+gEfzo/4Tjx9/wBAI/nXttFHtYfyh/ZuI/6CJfcv8jxL/hOPH3/QCP50f8Jx4+/6AR/OvbaKPaw/lD+zcR/0ES+5f5HiX/CcePv+gEfzo/4Tjx9/0Aj+de20Ue1h/KH9m4j/AKCJfcv8jxL/AITjx9/0Aj+dH/CcePv+gEfzr22ij2sP5Q/s3Ef9BEvuX+R4l/wnHj7/AKAR/Oj/AITjx9/0Aj+de20Ue1h/KH9m4j/oIl9y/wAjxL/hOPH3/QCP50f8Jx4+/wCgEfzr22ij2sP5Q/s3Ef8AQRL7l/keJf8ACcePv+gEfzo/4Tjx9/0Aj+de20Ue1h/KH9m4j/oIl9y/yPEv+E48ff8AQCP50f8ACcePv+gEfzr22ij2sP5Q/s3Ef9BEvuX+R4l/wnHj7/oBH86P+E48ff8AQCP517bRR7WH8of2biP+giX3L/I8S/4Tjx9/0Aj+dH/CcePv+gEfzr22ij2sP5Q/s3Ef9BEvuX+R4l/wnHj7/oBH86P+E48ff9AI/nXttFHtYfyh/ZuI/wCgiX3L/I8S/wCE48ff9AI/nR/wnHj7/oBH869too9rD+UP7NxH/QRL7l/keJf8Jx4+/wCgEfzo/wCE48ff9AI/nXttFHtYfyh/ZuI/6CJfcv8AI8S/4Tjx9/0Aj+dH/CcePv8AoBH869too9rD+UP7NxH/AEES+5f5HiX/AAnHj7/oBH86P+E48ff9AI/nXttFHtYfyh/ZuI/6CJfcv8jxL/hOPH3/AEAj+dH/AAnHj7/oBH869too9rD+UP7NxH/QRL7l/keJf8Jx4+/6AR/Oj/hOPH3/AEAj+de20Ue1h/KH9m4j/oIl9y/yPEv+E48ff9AI/nR/wnHj7/oBH869too9rD+UP7NxH/QRL7l/keJf8Jx4+/6AR/Oj/hOPH3/QCP517bRR7WH8of2biP8AoIl9y/yPEv8AhOPH3/QCP50f8Jx4+/6AR/OvbaKPaw/lD+zcR/0ES+5f5HiX/CcePv8AoBH86P8AhOPH3/QCP517bRR7WH8of2biP+giX3L/ACPEv+E48ff9AI/nR/wnHj7/AKAR/OvbaKPaw/lD+zcR/wBBEvuX+R4l/wAJx4+/6AR/Oj/hOPH3/QCP517bRR7WH8of2biP+giX3L/I8S/4Tjx9/wBAI/nR/wAJx4+/6AR/OvbaKPaw/lD+zcR/0ES+5f5HiX/CcePv+gEfzo/4Tjx9/wBAI/nXttFHtYfyh/ZuI/6CJfcv8jxL/hOPH3/QCP50f8Jx4+/6AR/OvbaKPaw/lD+zcR/0ES+5f5HiX/CcePv+gEfzo/4Tjx9/0Aj+de20Ue1h/KH9m4j/AKCJfcv8jxL/AITjx9/0Aj+dH/CcePv+gEfzr22ij2sP5Q/s3Ef9BEvuX+R4l/wnHj7/AKAR/OnJ448dk/PoZAr2ugjIxR7WH8oLLcR/0ES+5f5Hm+jePbeaQWutbbS56GM9ia9GVg6hl5DAEfjXCeJPBunagsmoQRKt2AW39yRyKw/AWv3QLaLq7k3O87N3XaDx/SiUIyjzQChiq1CqsPitb7S/z8z1miiisD2T/9D9pfi+7x+G4yhIzOgOOO4rufDkEcOj2pjGN0SE8dTiuG+L/wDyLcf/AF3T+Yr0DQf+QNZ/9cU/lXRL+CvVni0F/wAKdV/3Y/qa9FFFc57QUUVDJNHFy5xQJu25NRWcdUshwZKT+1rH/npT5WT7WHc0qKzf7Wsf+elH9rWP/PSnysPaw7mlRWb/AGtY/wDPSj+1bL/noKXKw9rDuaVFZv8Aa1l/z0H50DVbL/noKfKw9rDuaVFZ39q2X/PSj+1bL/npRysPaw7mjRWd/atl/wA9KP7Vsv8AnpRysPaw7mjRWd/atl/z0o/tWy/56UcrD2sO5o0Vnf2rZf8APSl/tSy/v0crD2sO5oUVn/2pZf36P7Usv79HKw9rDuaFFZ39q2X/AD0o/tWy/wCelHKw9rDuaNFZ39q2X/PSj+1bL/npRysPaw7mjRWd/atl/wA9KP7Vsv8AnpRysPaw7mjRWd/atl/z0o/tWy/56UcrD2sO5o0Vnf2rZf8APSj+1bL/AJ6UcrD2sO5o0Vnf2rZf89KP7Vsv+elHKw9rDuaNFZ39q2X/AD0o/tWy/wCelHKw9rDuaNFZ39q2X/PSj+1bL/npRysPaw7mjRWd/atl/wA9KP7Vsv8AnpRysPaw7mjRWd/atl/z0o/tWy/56UcrD2sO5o0Vnf2rZf8APSj+1bL/AJ6UcrD2sO5o0Vnf2rZf89KP7Vsv+elHKw9rDuaNFZ39q2X/AD0o/tWy/wCelHKw9rDuaNFZ39q2X/PSj+1bL/npRysPaw7mjRWb/atl/wA9BR/a1l/z0H50crF7WHc0qKzf7Wsv+eg/Oj+1rL/noPzo5WP2sO5pUVm/2tZf89B+dJ/atl/z0FHKxe1h3NOis3+1rH/noKP7Wsv+eg/OjlYe1h3NKis3+1rL/noPzo/tWy/56ClysftYdzSorN/tax/56Uf2tY/89KfKw9rDuaVFZv8Aa1j/AM9KP7Wsf+elHKw9rDuaVFZv9rWP/PSj+1rH/npRysPaw7mlRWb/AGtY/wDPSj+1rH/npRysPaw7mlRWb/a1j/z0o/tax/56UcrD2sO5pUVm/wBrWP8Az0o/tax/56UcrD2sO5pUVm/2tY/89KP7Wsf+elHKw9rDuaVFZv8Aa1j/AM9KP7Wsf+elHKw9rDuaVFZv9rWP/PSj+1rH/npRysPaw7mlRWb/AGtY/wDPSk/tax/56CjlYe1h3NOiqcd9bSn5GzVsMGHFJqxSknsLRRRSGH1rw/WoPsnxLttQHyosWCBx6V7hXjfisf8AFWw/7g/pW+H3Z4+dL9zCXaSZ6/C4liWQdxUtU9P/AOPOL/dFXKxe560HeKZ//9H9pfi//wAi5F/18J/MV6BoP/IGs/8Arin8q8/+L/8AyLkX/Xwn8xXoGg/8gaz/AOuKfyrol/Bj6s8ah/yM6v8Ahj+pr0UU1jhSfQVznsmdqF8lohyea8+vdUnnfhiBnpVnXLt5Z9oPHI/KuerohGyPn8bipTlyrYm8+Q8k0nnSev8An86iorQ4OZkvnSev+fzo86T1/wA/nUVFAXZL50nr/n86POkHc1FRQF2S+dL6mjzpfU1FRQF2S+dL6mjzpfU1FRQF2S+dL6mjzpfU1FRQF2S+dL6mjzpfU1FRQF2S+dL6ml8+X1qGigLsm8+X1o+0S+pqGigLsmM8p7mk86X1NRUUBzMl86X1NHnS+pqKigLsl86X1NHnS+pqKigLsl86X1NHnS+pqKigLsl86X1NHnS+pqKigLsl86X1NHnS+pqKigLsl86X1NHnS+pqKigLsl86X1NHnS+pqKigLsl86X1NHnS+pqKigLsl86X1NHnS+pqKigLsl86X1NHnS+pqKigLsl86X1NHnS+pqKigLsl86X1NHnS+pqKigLsl86X1NHnS+pqKigLsl86X1NHnS+pqKigLsl86X1NHnS+pqKigLsl86X1NHmyev+fzqKigLsl82T1o86X1NRUUBdkvnS+po86TuaiooC7JfOk9f8/nR50nr/n86iooC7JfOk9f8/nR50nr/n86iooC7JfOk9f8/nR50nr/AJ/OoqKAuyXzpPX/AD+dHnSev+fzqKigLsl86T1/z+dHnSev+fzqKigLsl86T1/z+dHnSev+fzqKigLsl86T1/z+dHnSev8An86iooC7JfOk9f8AP50edJ6/5/OoqKAuyXzpPX/P50edJ6/5/OoqKAuyXzpPX/P50ebJ61FRQF2W4rueMghiMV1uk60Swjl/OuHqWGRo3BX1pNX0N6GInTldHsisGUEdxT6x9GuDcWu49sCtiuVqzsfS05qUVJBXjniv/kbYP9z/AAr2OvHPFf8AyNsH+5/hW+H+Jnl51/AX+JHrFh/x5w/7oq3VSw/484f90VbrB7nqw+FH/9L9pfi//wAi5F/18J/MV6BoP/IGs/8Arin8q8/+L/8AyLkX/Xwn8xXoGg/8gaz/AOuKfyrol/Bj6s8ah/yM6v8Ahj+pr0yT/Vt/umn1HL/q3/3TWCPZZ5NqJzcMfc1Qq/f/APHwf94/zqhXXbQ+Tq/EwooooMwooooAKKKKACiiigAooooAKKKKACiiigAooooAKKKKACiiigAooooAKKKKACiiigAooooAKKKKACiiigAooooAKKKKACiiigAooooAKKKKACiiigAooooAKKKKACiiigAooooAKKKKACiiigAooooAKKKKACiiigAooooAKKKKACiiigAooooAKKKKACiiigAooooAKUHBpKKAPQ/CpzZuf9r/ABrqa5Xwp/x5P/vV1Vc0/iPp8H/BiFeOeK/+Rtg/3P8ACvY68c8V/wDI2wf7n+Fa4f4mcOdfwF/iR6xYf8ecP+6Kt1UsP+POH/dFW6we56sPhR//0/2l+L//ACLkX/Xwn8xXoGg/8gaz/wCuKfyrz/4v/wDIuRf9fCfzFegaD/yBrP8A64p/KuiX8GPqzxqH/Izq/wCGP6mvTJOY3/3TT6a/3G+hrBHss8k1H/j4b6mqFX9Q/wCPg/U1QrrPk6vxsKKKKDMKKKKACiiigAooooAKKKKACiiigAooooAKKKKACiiigAooooAKKKKACiiigAooooAKKKKACiiigAooooAKKKKACiiigAooooAKKKKACiiigAooooAKKKKACiiigAooooAKKKKACiiigAooooAKKKKACiiigAooooAKKKKACiiigAooooAKKKKACiiigAooooAKKKKACiiigD0Lwp/x5P8A71dVXK+FP+PJ/wDerqq5p/EfT4P+DEK8c8V/8jbB/uf4V7HXjniv/kbYP9z/AArXD/Ezhzr+Av8AEj1iw/484f8AdFW6qWH/AB5w/wC6Kt1g9z1YfCj/1P2l+L//ACLkX/Xwn8xXoGg/8gaz/wCuKfyrz/4v/wDIuRf9fCfzFegaD/yBrP8A64p/KuiX8GPqzxqH/Izq/wCGP6mvTH+430NPpj/cb6GudHss8m1Ef6QR7ms+tHU/+Pk/U1nV2dD5Or8TCiiigzCiiigAooooAKKKKACiiigAooooAKKKKACiiigAooooAKKKKACiiigAooooAKKKKACiiigAooooAKKKKACiiigAooooAKKKKACiiigAooooAKKKKACiiigAooooAKKKKACiiigAooooAKKKKACiiigAooooAKKKKACiiigAooooAKKKKACiiigAooooAKKKKACiiigAooooA9C8Kf8AHk/+9XVVyvhT/jyf/erqq5p/EfT4P+DEK8c8V/8AI2wf7n+Fex1454r/AORtg/3P8K1w/wATOHOv4C/xI9YsP+POH/dFW6qWH/HnD/uirdYPc9WHwo//1f2l+L//ACLkX/Xwn8xXoGg/8gaz/wCuKfyrz/4v/wDIuRf9fCfzFegaD/yBrP8A64p/KuiX8GPqzxqH/Izq/wCGP6mvTX+430NOpj/cb6GsEeyzyfUv+Phvqazq0NS/4+G+p/nWfXUtj5Or8TCiiimZhRRRQAUUUUAFFFFABRRRQAUUUUAFFFFABRRRQAUUUUAFFFFABRRRQAUUUUAFFFFABRRRQAUUVWu7uCxge6uW2RxjLH0ppX2E2krss0V5zD8VfBs179hW9HmZAAx3PHrXoUM0c6LJGcqwBB9j+dVKEo7owoYujW/hST9GSUUUVB0BRRRQAUUUUAFFFFABRRRQAUUUUAFFFFABRRRQAUUUUAFFFFABRRRQAUUUUAFFFFABRRRQAUUUUAFFFFABRRRQAUUUUAFFFFABRRRQAUUUUAFFFFABRRRQB6F4U/48n/3q6quV8Kf8eT/71dVXNP4j6fB/wYhXjniv/kbYP9z/AAr2OvHPFf8AyNsH+5/hWuH+JnDnX8Bf4kesWH/HnD/uirdVLD/jzh/3RVusHuerD4Uf/9b9pfi//wAi5F/18J/MV6BoP/IGs/8Arin8q8/+L/8AyLkX/Xwn8xXoGg/8gaz/AOuKfyrol/Bj6s8ah/yM6v8Ahj+pr0x/uN9DT6a/3G+hrBHss8m1D/j5P1NZ1aGof8fB+prPrs6HydX42FFFFIzCiiigAooooAKKKKACiiigAooooAKKKKACiiigAooooAKKKKACiiigAooooAKKKKACiiq13dwWUDz3DqioCfmIHT60JXE2krsLy8trCBri7kEca9WbgCvkL4jfEi/8R340PQd4UN5TGPkNTfiV8S77xLeNoOgFxC3ysACcsOO1eY+D7o+FtfhudZif5pQclSP5j2r08Ph+Vc8tz86z3P8A6xP6rRdoXs2dZP8ACLXbTQ4deSVvtGSzJj5htwfSvQPhR8S7qC4Tw7rm4OWwJJDjAHFe1X/jrQV8OtqhdTHMjAJuG7OPT8a+QdKt5PF/jZJ9JjZIyx5YHAwfXinCTqRaqIyxNGnluIpTwE7t2uu//Dn33FIssayIQQwyDT6z9Jt3ttNt7eX70aAH61oV5jP0mDbim9wooopFBVa8uo7K2kuZWAWNWbnvgZqzXhnxj8XppWlfYLV/9IkfYQDk4bA6VpShzyscWY42OFoSrS6Gt4W+Klt4k1RtOW28sLI0e/PHynHrXq32m3/vj86+CtI8N+O9HsZNe02QRRlt5GPmy2T61s+Gtb+J/iiaeCwv0Vrb7wbj0/2h612TwsXrFnyGA4nrwiqeJpuUntp0Pt7z4trOrAhQSfwrym7+Klrb+KU8NxQebvXPmA9Dx71yOn6j4u8K6dcXHi24WZJIXRAvXdg47n1rwnQdA8Y+J9Tk8R6M4SRHZVZgR3PuPSlTw8dXLY6My4gr/u4YeDUnura2/wCCfekN7BLEsm4DcAcVKLiA8Bwa+EpPFPxKttVj0WS9CSyNsUtkDj8a9M0vSPi79tt5J76JofMG7HOVzz/FUywlt2b4fih1XywoydtGfU9FRW4cQoJeX2jd9cU9mRBlyFHqeK42j6xO6uOrzzxz8QbDwZbLIyrPMzhPKzyM4qn42+JOleGbV40fzbhwQnlsGwfwzXybqVl4v+IV4dU+bazZXepGCDkda6qGHv709j5bPM/9ivq+E1qeXQ+z/Bnip/FWntfSWxttrABW7jnnrXY7l9a+MtPT4uaXALazugkagADB7dP4qutqHxlQbmvQAOuQcf8AoVXLCpvRmOG4llClGNalJy6uyPsDcvrS18KJ8SPiTba7Fpc175hEqK4QEjBOOxNfb2mvNJYwSTn52jQt9SBmsK1B07XZ6+U51Tx7kqcWuXuXaKKKwPZCiiigAooooAKKKKACiiigAooooAKKKKACiiigAooooAKKKKACiiigAooooAKKKKAPQvCn/Hk/+9XVVyvhT/jyf/erqq5p/EfT4P8AgxCvHPFf/I2wf7n+Fex1454r/wCRtg/3P8K1w/xM4c6/gL/Ej1iw/wCPOH/dFW6qWH/HnD/uirdYPc9WHwo//9f9pfi//wAi5F/18J/MV6BoP/IGs/8Arin8q8/+L/8AyLkX/Xwn8xXoGg/8gaz/AOuKfyrol/Bj6s8ah/yM6v8Ahj+pr01/uN9DTqa/3G+hrBHsnkmo/wDHw31NUKv6j/x8N9TVCus+Tq/GwooooMwooooAKKKKACiiigAooooAKKKKACiiigAooooAKKKKACiiigAooooAKKKKACiiqt5e21hA1zduI416segoSE5JK72FvLuCxt5Lq4O2ONdzH2FfIHxK+JV54lvToGgNvh3gBl+Vjk47U74j/Ee+8R339h6Fu2hzGWiP3ga774VfC2PTYo9Z1lRJM3/LOQcj3/WvQp040o889z4fH4+vmlb6lgtIdWL8K/hYmlImsayhNySHVXG4ENz3q98YvDPhybSTeXJ+zzwxkxCNQNxz3wRXqXiPxNp3hfT2uLh0TywMIfSvjfVNV1/4na+LO0EgtVk2kryoU/n60UnOpP2knZDzRYPA4T+z6Ueacvz7nC+GdI1zxXcxaTYtLJCjBmG5uF7/AKCvubwH4D07wlpyRRpulOGZmA3AnrzyaTwH4D0/wlp8caorzgYaTHzGvRAMcVniMRze7HY7eHuH1hYqvX1m/wAAooorjPqwooooAa+dh29e1fOmtfDTVfEPjaXUdQRxZfKykEkZBJ6dK+jCQq7icAVx2ueOvD2iKwubuISL/ASc1vRnKL9w8nNsLhq0I/WpWinfc3Bo9m2nJpzRqEVFX7o7DFfPVnpmm/DjV9R1PUJGjS4ffGD0I47E+1UvEPxs1G932Oi2Jl3cCRD/APXrF8N+CNW8W3f9peIL+SKPdv8AJl5BHp0rpp0pRTdR6HzWYZlQxVWEMFDmnHZ7JEHi/wCI48UmOBtq6crhldQMnnnOP8a9n+GGr+En04WGkSiRmOTlQDnnPc10Nt4Q8HW+n/YTbwNgEbsGvDvFnw8utDlbVfDd+y7TkQw8e/pTvCa5FoHscbgqv12pao3v3Xod749+HVxrGu2Oq6ZF/qeW28c8+leuaFZyWumww3SjzFHOetfM3h34yaxo+2w1ixJVflMrn079a910H4ieG9ajTbdxLK38AJyDWVWFRRUXsj0spxuXTrSrUpcspbp6HeHIU4Hbivm74j+LvG0N+uh6XboROPlP8X/oJr6QVldQyHIPTFUptL064nW4nt0eVPusRyKxpVFB3krnr5ng6uJpclKfL/kfKGifCrV7tZNd8SeakiDzFQsWUkfXFdl4b+JWhaVfjRdUSKFV4BWNc5PHoK+hpEhEJSQARgcg9MV4F8R9J8D3Ns7x3VvZXa5bcM7iRzjoe9dMKvtXyzR89icreXU1Vwkkmt+b7R7nZyafewrcWyIyMAQdo6GvHPiN8Q9I0u1k0mw2NdzAoFKj73+RXzjovifxesMuj6U090GkISRD0AJAxXtngf4UXE8ya14hlaaRiJPLlHKn0pqjGm+abMVnWIzGCoYOnZvd9EUPhP4Cu7y9/wCEn1uLBmXgEZGRz3+tfUSKEQIOigAfhUdvbwWkQgt0Eca9FHQVNXJVqubufT5VlsMFRVOO/V92FFFFZHpBRRRQAUUUUAFFFFABRRRQAUUUUAFFFFABRRRQAUUUUAFFFFABRRRQAUUUUAFFFFAHoXhT/jyf/erqq5Xwp/x5P/vV1Vc0/iPp8H/BiFeOeK/+Rtg/3P8ACvY68c8V/wDI2wf7n+Fa4f4mcOdfwF/iR6xYf8ecP+6Kt1UsP+POH/dFW6we56sPhR//0P2l+L//ACLkX/Xwn8xXoGg/8gaz/wCuKfyrz/4v/wDIuRf9fCfzFegaD/yBrP8A64p/KuiX8GPqzxqH/Izq/wCGP6mvTX+430NOpr/cb6GsEeyeSaj/AMfDfU1Qq/qP/Hw31NUK6z5Or8bCiiigzCiiigAooooAKKKKACiiigAooooAKKKKACiiigAooooAKKKKACiiigAooooAK+Z/jx4ovtO2aLbSFVuI8kDpX0xXx9+0QSuuWjYOBFXVhEnU1PnOKqsoZfJwdtUjsPhH8NbWK0i8QamqyNOoePHUEfnXtfiTxNYeG7B7i5dchSFXODkCvnTwz8atL0bw7baaWbzYY9uNvevP9T1XxD8U9d+x2eTAWDcZHGef0rodCU581TY8OhnOFweDjRwKvUdvvHatquv/ABU18WFoXFsxKfMDt4OBzX1V4C8B6d4T09FjjAuHQeYw7mm+BfBGleENPRF2+Y2GYvjIbvzXdQ6hZzOY0kUkHGMj/Gsa9a65YbHrZLk/sZfWsW71ZfgXaKAQRxRXGfUhRWXfaxY6dgXMgBPbIq5a3MN5CtxCco3Q0+V2uQqkHLkT1LFFFFIsZKnmRtGf4hXg2ufB8674hk1G9KPavjCdD1r3ymsCVIHcYranUlHWJw47LqGLSjWV0j528QfDCKzVYfCM0VpcbRgFhknHJ6iuY/4Qb4rRJzq6Kq9yeB/49V7xzq+peF/H9pdsSLVU3Nkkjnb+FfQEbrr3hoSx9bqHII47/wD1q6nUlGMW9Uz5Sjl+ExNarTgnGUeidkfMtv4Y+Jl1Obe312GR16hWycfg1Xv+EF+LPfVl/wA/8Cqt4MvpfDXxLvtPvHbYF2AMc8ncO9fVdzcwW9mbqTAXbn9M06tWUGkkRlWV4fFUpTnKScW01zM+b/Dfw4luZZIfGV5BdySNhV3DP8zWt/wpUWOrR3ujFIYkkDEcE4H41w/hiTUPFHjqS6jdjDZ3JBwTjH0r7AAAGPSprVZwa1N8ny7B4yk26ekXo76v5mbPcLpdiJCpYRryF9hXgGufHe2ilks7GxuPMQlcgHGR9BX0dJGkqNG4yGBB/GvP7b4aeHba7e8Cbndyx3AEc1hSlTWs0e3mlDHT5Y4Oaiup8r6/8VPG1whMDz20b54dWGRXBDSfFHimMX8u+ZWPJ2k19Q/GmwtLPSrWOCFEwCMqoB7+grp/gvb27+B7cvEjHe3JUHsK7fbRjT50j4t5NWxGYPB16rdle/8AwD5t8P2Pifw5tbTklicc5CHrXY/8JZ8Sf+e0/wD3w3+NfXP2S1/54x/98Cj7Ja/88Y/++BWDxae8T3aXC1SlHlp12l5f8OfGmofEPx7pAjkvLiVVdwvKkV9KfDnXbrX9D+2Xjl33Yyfxrz34928EegWTRxop8/qFA7r6V03wa/5Fk/8AXT/GnV5ZUuZIzyuFfD5s8LOo5K19fQ9booorgPtQooooAKKKKACiiigAooooAKKKKACiiigAooooAKKKKACiiigAooooAKKKKACiigelAHoXhT/jyf8A3q6quW8KDFm4/wBr/GuprmqfEz6fB/wYhXjniv8A5G2D/c/wr2OvHPFf/I2wf7n+Fa4f4mcOdfwF/iR6xYf8ecP+6Kt1UsP+POH/AHRVusHuerD4Uf/R/aX4v/8AIuRf9fCfzFegaD/yBrP/AK4p/KvP/i//AMi5F/18J/MV6BoP/IGs/wDrin8q6JfwY+rPGof8jOr/AIY/qa9Mk+43+6afUcv+rf8A3TWCPZZ5NqP/AB8N9TVCr+o/8fDfU1QrrPk6vxsKKKKDMKKKKACiiigAooooAKKKKACiiigAooooAKKKKACiiigAooooAKKKKACiiigCvdXUNnE00zBUUEk/SvE9Wu/Bfju+8q4vI/OiJjC4yT2r2i/s0vrV7eQZDAj8xXx94l+EviHRdSfUNHnxuYuNg5Gea68Movd2Z81xDVxEIx5KfPDqj0e9+HfgnTIhPd3EaJ15Fcde/ETw34QUweGbeC6k+6JAMMc1yVt4L8feIpBaXt3JsBx844wa9j8JfA7TNLCvrSpdOPT1rpbjFe/K585QhisRP/YaCp/3meNT6x8QvGT5s7eeKNu8ZrK1HTvHHg+SDU7iW5ZR87Bm47190abo+n6VGIbGIRqO1YnjPw7H4j0S5syB5jR4Qnsazji1zWtod9bhWr7J1ZVW6m5zHw+8d2mteG4L3UJBFKQS4PsBXO+NPjRpejRvFpDpcyDjFeGW3w78a2N02kWly8cS/LkD5cHivTfCfwL8iZbvxA6XWTkrTdOjF80mZUcxzfEUo4alCzWjkzzOwtvGnxA1dLk+fDbl8kqflAP519l+GNLfRtGt9PkkMrRDBZupqzpOi6fosAt7CIRqBjA9q1a569fn91LQ+gybJfqd6tSXNN7hRRRXMe8Fcfq/jzwvoV01nqd6kMq9VPUV2FeU+KfhfpniXUX1C5RC79Sa1pKDfvnBmE8VGnfCJOXmcB8Rde8A+LLBwmqRpNgBWA56V0/hL4g+CtF0i3sJdWWTyowuTVD/AIUZon/PJKP+FGaJ/wA8krq5qPLy30Pl4Uc2jiHiY0o8zVuv+Zyus3Pw/wBU8SPri60sLs6scDrg5xWj8SPijoL+GjY6JeLNMAqjb1IAxWz/AMKM0T/nklH/AAozRP8AnklVz0rpt7GLwea8lSEKcY8+7VzkPhL4p8HeH7a4uNRvkSe5IchuoNe6WHxG8H6lMILO/SRycAD3rzr/AIUZon/PJK2NF+EWk6PdrdRxpuUg8e34VFR0ZPmudmWwzbDQjQVOPKvU9kUggEd6WkRdiqo/hAH5UtcTPsTwL46tt0y3PoD/AFrzHwD8WJvDfh+LTFt0cIxOT/8Arr6F+IXgu48Y2kVvBKItmQd1YvhT4RaDpOkR2erwJdXCkln9a7oVaapKMz4vG5bj55nKthXyq25xP/C9rj/n1j/P/wCvR/wva4/59Y/z/wDr163/AMK18Hf8+CUf8K18Hf8APglL2tD+U6PqGd/8/wBf18j5d+I3xMl8WafbWbwLGElDZX8P8K+gfgzz4XJ/2/8AGs7xl8HNJ1mzhi0ONLSWOTcWPccV3PgXwxN4V0j+zp5BI27OR0oq1abpWgY5Xl2Op5m62K103O0ooorhPsgooooAKKKKACiiigAooooAKKKKACiiigAooooAKKKKACiiigAooooAKKKKACnf402nf40AeheFhizf/e/xrqK5jwx/x5v/AL3+NdPXNP4j6fB/wYhXjniv/kbYP9z/AAr2OvHPFf8AyNsH+5/hWuH+JnDnX8Bf4kesWH/HnD/uirdVLD/jzh/3RVusHuerD4Uf/9L9pfi//wAi5F/18J/MV6BoP/IGs/8Arin8q8/+L/8AyLkX/Xwn8xXoGg/8gaz/AOuKfyrol/Bj6s8ah/yM6v8Ahj+pr1HL/q3/AN01JUcv+rf/AHTWCPZZ5NqP/Hw31NUKv6j/AMfDfU1QrrPk6vxsKKKKDMKKKKACiiigAooooAKKKKACiiigAooooAKKKKACiiigAooooAKKKKACiiigApCit95QfqKWigBixxr0VR9BT6KKACiiigBnlx5ztXP0p444FFFABRRRQAUUUUAFFFFABRRRQAUUUUAFFFFABRRRQAUUUUAFFFFABRRRQAUUUUAFFFFABRRRQAUUUUAFFFFABRRRQAUUUUAFFFFABRRRQAUUUUAFFFFABRRRQAU5fvCm0o6g+9AHovhj/jzb/erpq5jwxzZv/vf4109c1T4j6jCfwYhXjniv/kbYP9z/AAr2OvHPFf8AyNsH+5/hWuH+JnBnX8Bf4kesWH/HnD/uirdVLD/jzh/3RVusHuerD4Uf/9P9pfi//wAi5F/18J/MV6BoP/IGs/8Arin8q8/+L/8AyLkX/Xwn8xXoGg/8gaz/AOuKfyrol/Bj6s8ah/yM6v8Ahj+pr1HL/q3/AN01JUcv+rf/AHTWCPZZ5NqH/Hw31NUKv3//AB8H/eP86oV1nydX42FFFFBmFFFFABRRRQAUUUUAFFFFABRRRQAUUUUAFFFFABRRRQAUUUUAFFFFABRRRQAUUUUAFFFFABRRRQAUUUUAFFFFABRRRQAUUUUAFFFFABRRRQAUUUUAFFFFABRRRQAUUUUAFFFFABRRRQAUUUUAFFFFABRRRQAUUUUAFFFFABRRRQAUUUUAFFFFABRRRQAUUUUAFFFFABTv8abRQB6J4XObN/8Ae/xrqK5Xwqc2Tn/a/wAa6quafxH0+D/gxCvHPFf/ACNsH+5/hXsdeOeK/wDkbYP9z/CtcP8AEzhzr+Av8SPWLD/jzh/3RVuqlh/x5w/7oq3WD3PVh8KP/9T9pfi//wAi5F/18J/MV6BoP/IGs/8Arin8q8/+L/8AyLkX/Xwn8xXoGg/8gaz/AOuKfyrol/Bj6s8ah/yM6v8Ahj+pr1HL/q3/AN01JUcv+rf/AHTWCPZZ5Nf/APHwf94/zqhV+/8A+Pg/7x/nVCus+Tq/GwooooMwooooAKKKKACiiigAooooAKKKKACiiigAooooAKKKKACiiigAooooAKKKKACiiigAooooAKKKKACiiigAooooAKKKKACiiigAooooAKKKKACiiigAooooAKKKKACiiigAooooAKKKKACiiigAooooAKKKKACiiigAooooAKKKKACiiigAooooAKKKKACiiigAooooAKKKKAPQvCn/AB5P/vV1Vcr4U/48n/3q6quafxH0+D/gxCvHPFf/ACNsH+5/hXsdeOeK/wDkbYP9z/CtcP8AEzhzr+Av8SPWLD/jzh/3RVuqlh/x5w/7oq3WD3PVh8KP/9X9pfi//wAi5F/18J/MV6BoP/IGs/8Arin8q8/+L/8AyLkX/Xwn8xXoGg/8gaz/AOuKfyrol/Bj6s8ah/yM6v8Ahj+pr1HL/q3/AN01JTJP9W3+6awR7LPJb/8A4+D/ALx/nVCtDURi4I9zWfXWfJ1fiYUUUUGYUUUUAFFFFABRRRQAUUUUAFFFFABRRRQAUUUUAFFFFABRRRQAUUUUAFFFFABRRRQAUUUUAFFFFABRRRQAUUUUAFFFFABRRRQAUUUUAFFFFABRRRQAUUUUAFFFFABRRRQAUUUUAFFFFABRRRQAUUUUAFFFFABRRRQAUUUUAFFFFABRRRQAUUUUAFFFFABRRRQAUUUUAFFFKBk4oA9B8Kf8eT/71dVXLeFkK2bg/wB6uprmn8R9Pg/4MQrxzxX/AMjbB/uf4V7HXjniv/kbYP8Ac/wrXD/Ezhzr+Av8SPWLD/jzh/3RVuqlh/x5w/7oq3WD3PVh8KP/1v2l+L//ACLkX/Xwn8xXoGg/8gaz/wCuKfyrz/4v/wDIuRf9fCfzFegaD/yBrP8A64p/KuiX8GPqzxqH/Izq/wCGP6mvTSMqR7Yp1Fc57J5xrtm0U+8Diuar169so7uMqw5PeuAvNEngZmUFhnsK6ISTVjwcbhJRlzRWhgUVP9muBx5bUfZrj+435VoefyvsQUVP9muP7jflR9muP7jflQHK+xBRU/2af/nm35UfZp/+ebflQHK+xBRU/wBmuP7jflR9muP7jflQHK+xBRU/2a4/uN+VH2a4/uN+VAcr7EFFT/Zrj+435UfZrj+435UByvsQUVP9muP7jflR9muP7jflQHK+xBRU/wBmuP7jflR9muP7jflQHK+xBRU/2a4/uN+VH2a4/uN+VAcr7EFFT/Zrj+435UfZrj+435UByvsQUVP9muP7jflR9muP7jflQHK+xBRU/wBmuP7jflR9muP7jflQHK+xBRU/2a4/uN+VH2a4/uN+VAcr7EFFT/Zrj+435UfZrj+435UByvsQUVP9muP7jflR9muP7jflQHK+xBRU/wBmuP7jflR9muP7jflQHK+xBRU/2a4/uN+VH2a4/uN+VAcr7EFFT/Zrj+435UfZrj+435UByvsQUVP9muP7jflR9muP7jflQHK+xBRU/wBmuP7jflR9muP7jflQHK+xBRU/2a4/uN+VH2a4/uN+VAcr7EFFT/Zrj+435UfZrj+435UByvsQUVP9muP7jflR9muP7jflQHK+xBRU/wBmuP7jflR9muP7jflQHK+xBRU/2a4/uN+VH2a4/uN+VAcr7EFFT/Zrj+435UfZrj+435UByvsQUVP9muP7jflR9muP7jflQHK+xBRU/wBmuP7jflR9muP7jflQHK+xBRU/2a4/uN+VH2a4/uN+VAcr7EFFT/Zrj+435UfZrj+435UByvsQUVP9muP7jflR9muP7jflQHK+xBRU/wBmuP7jflR9muP7jflQHK+xBRU/2a4/uN+VH2a4/uN+VAcr7EFFT/Zrj+435UfZrj+435UByvsQUVP9muP7jflR9muP7jflQHK+xBRU/wBmuP7jflR9muP7jflQHK+xBRU/2a4/uN+VH2a4/uN+VAcr7EFFT/Zrj+435UfZrj+435UByvsQVNDG0rhV55FWYNPuJjgIw/Cux0nRfJAkkwSPWplJI3oYadSW2hr6TbfZrYL0zg1q00AAADsKdXM3d3PpYRUYqKCvHPFf/I2wf7n+Fex1454r/wCRtg/3P8K3w/xM8rOv4C/xI9YsP+POH/dFW6qWH/HnD/uirdYPc9WHwo//1/2l+L//ACLkX/Xwn8xXoGg/8gaz/wCuKfyrz/4v/wDIuRf9fCfzFegaD/yBrP8A64p/KuiX8GPqzxqH/Izq/wCGP6mvRRRXOeyFNKA8ECnUUAVTaQk520n2OH+7/KrdFPmZPLHsVPscP93+VH2OH+7/ACq3RT5mHJHsVBZw91o+xwf3R+lW6KXMx8q7FT7HD/d/lR9jh/u/yq3RT5mLkj2Kn2OH+7/Kj7HD/d/lVuijmYckexU+xw/3f5UfY4f7v8qt0UczDkj2Kn2OH+7/ACo+xw/3f5Vboo5mHJHsVPscP93+VH2OH+7/ACq3RRzMOSPYqfY4f7v8qPscP93+VW6KOZhyR7FT7HD/AHf5UfY4f7v8qt0UczDkj2Kn2OH+7/Kj7HD/AHf5Vboo5mHJHsVPscP93+VH2OH+7/KrdFHMw5I9ip9jh/u/yo+xw/3f5Vboo5mHJHsVPscP93+VH2OH+7/KrdFHMw5I9ip9jh/u/wAqPscP92rdFLmYcsexV+xw+n6UfY4fT9KtUUXY+Vdir9jh9P0o+xw+n6Vaoouw5V2Kv2OH0/Sj7HD6fpVqii7DlXYq/Y4fT9KPscP939KtUUXDlXYq/Y4fT9BS/Y4f7o/KrNFF2HKuxW+xw/3R+VH2OH+6PyqzRRzMOVdit9jh/uj8qPscP90flVmijmYcq7Fb7HD/AHR+VH2OH+6PyqzRT5mHKuxW+xw/3R+VH2OH+6PyqzRRzMOVdit9jh/uj8qBaQj+EVZoo5mHKuxW+yw/3f8AP5UfZYf7v+fyqzRRzMOVdit9jh/uj8qPscP90flVmijmYcq7Fb7HD/dH5UfY4f7o/KrNFHMw5V2K32OH+6Pyo+xw/wB0flVmijmYcq7Fb7HD/dH5UfY4f7o/KrNFK7DlXYrfZIf7o/Kj7HD/AHR+VWaKOZhyrsVvscP90flR9jh/uj8qs0U+ZhyrsVfskP8AdFH2SH+6Pyq1RSuw5V2K32SH+6PypPscPp+lWqKLsOVdir9jh9P0pPscP93+VW6KOZi5Y9ip9jh/u/yo+xw/3f5Vbop8zDkj2Kn2OH+7/Kj7HD/d/lVuijmYckexU+xw/wB3+VH2OH+7/KrdFHMw5I9iGOFI/ugVNgDpRRUlJWCiiigArxzxX/yNsH+5/hXsdeOeK/8AkbYP9z/CujD/ABM8jOv4C/xI9YsP+POH/dFW6qWH/HnD/uirdYPc9WHwo//Q/aX4v/8AIuRf9fCfzFegaD/yBrP/AK4p/KvP/i//AMi5F/18J/MV6BoP/IGs/wDrin8q6JfwY+rPGof8jOr/AIY/qa9FFFc57IUUUUAFFFFABRRRQAUUUUAFFFFABRRRQAUUUUAFFFFABRRRQAUUUUAFFFFABRRRQAUUUUAFFFFABRRRQAUUUUAFFFFABRRRQAUUUUAFFFFABRRRQAUUUUAFFFFABRRRQAUUUUAFFFFABRRRQAUUUUAFFFFABRRRQAUUUUAFFFFABRRRQAUUUUAFFFFABRRRQAUUUUAFFFFABRRRQAUUUUAFFFFABXjniv8A5G2D/c/wr2OvHPFf/I2wf7n+FdGH+JnkZ1/AX+JHrFh/x5w/7oq3VSw/484f90VbrB7nqw+FH//R/aX4v/8AIuRf9fCfzFegaD/yBrP/AK4p/KvP/i//AMi5F/18J/MV6BoP/IGs/wDrin8q6JfwY+rPGof8jOr/AIY/qa9FFFc57IUUUUAFFFFABRRRQAUUUUAFFFFABRRRQAUUUUAFFFFABRRRQAUUUUAFFFFABRRRQAUUUUAFFFFABRRRQAUUUUAFFFFABRRRQAUUUUAFFFFABRRRQAUUUUAFFFFABRRRQAUUUUAFFFFABRRRQAUUUUAFFFFABRRRQAUUUUAFFFFABRRRQAUUUUAFFFFABRRRQAUUUUAFFFFABRRRQAUUUUAFFFFABXjniv8A5G2D/c/wr2OvHPFf/I2wf7n+FdGH+JnkZ1/AX+JHrFh/x5w/7oq3VSw/484f90VbrB7nqw+FH//S/aX4v/8AIuRf9fCfzFegaD/yBrP/AK4p/KvP/i//AMi5F/18J/MV6BoP/IGs/wDrin8q6JfwY+rPGof8jOr/AIY/qa9FFFc57IUUUUAFFFFABRRRQAUUUUAFFFFABRRRQAUUUUAFFFFABRRRQAUUUUAFFFFABRRRQAUUUUAFeF/Hn45eHPgX4Kv/ABdr4MqWce8wo2JGGCeBye3pXt088dvC80pCqiliTxwBmv50/wDgqB8dZ/Fviu08C+EJWuLeWBobhUJPzqAOgzQB+0H7PX7RmhfH/Rhq2h2FzZx+WJAZwRkHHTIHrX0lX82fwB/a+8afB3wTp/h7TrRVaCARPuh5499vtXuM/wDwUp+I9tGZZYI1VQSSYj2/4BQB+7dFfgZpf/BUbxtrDMtgsUhVtp2x55HH92t//h5D8S/+fdP+/R/+IoA/dSivxd8B/wDBQL4ieJfEdlpN1AgjuJ4o2PlEcOwB/hr9lNMuGu9OtLt/vTQRyH6uoP8AWgC9RRRQAUUUUAFFFFABRRRQAUUUUAFFFFABRRRQAUUUUAGa8i1H43fDvS76bTr3WrCKeBtro9yisp9CCa9Zl+4a/lPg+Fmo/Gn9qXx1oV1qV+kSa0YgsVxIoAKIeAGGOtAH9Jf/AAv34Y/9B7T/APwKj/xo/wCF+/DH/oPaf/4FR/41+Wf/AA62sv8AoJav/wCBc3/xdH/Dray/6CWr/wDgXN/8XQB+pn/C/fhj/wBB7T//AAKj/wAa7Lwt8QfC3jCR4dA1C2vGjG5hBKsmB9FNfiL8TP8Agm9b+DPBOp+JIdT1bfZRFxm7lx/6HV//AIJVw3+m/E7xPpF1d3FwlvagATSvJjg/3iaAP3iooooAKKKKACiiigAooooAKKKKACiiigAooooAKKKKACql5eQWMDXFy6xovUscCrdeOfHSSSL4e37xsUIU8qcH7p9KAFuvjp8N7S4ktZ9c09JIztZWuowQfpmoP+F+/DH/AKD2n/8AgVH/AI1/Oj8Bv2dL39ov4i+Nftup6iBY6k6KI7qUAD5fRh619t/8Ot4P+glq/wD4Fzf/ABygD9U/+F+/DH/oPaf/AOBUf+NH/C/fhj/0HtP/APAqP/Gvys/4dbwf9BLV/wDwLm/+OU1/+CXEAUkalq3/AIFzf/HKAP1z0H4s+B/Elx9m0nVrO4kzjbFOjnP4GvSgc9K/mT/Za8P6p8Pv2m9d8DNf3ksOmX6Qqs07vxgerGv6aIP9RH/ur/KgCWiiigArxzxX/wAjbB/uf4V7HXjniv8A5G2D/c/wrow/xM8jOv4C/wASPWLD/jzh/wB0VbqpYf8AHnD/ALoq3WD3PVh8KP/T/aX4v/8AIuRf9fCfzFegaD/yBrP/AK4p/KvP/i//AMi5F/18J/MV6BoP/IGs/wDrin8q6JfwY+rPGof8jOr/AIY/qa9FFFc57IUUUUAFFFFABRRRQAUUUUAFFFFABRRRQAUUUUAFFFFABRRRQAUUUUAFFFFABRRRQAUUUUAfmR+3T+1LefDLTZvBfhlBPq8zCMRq2H2yYXPX3rwn9i79kG+8UXz/ABT+LUL3E81x9qgtrwb1ZJTuwOOn41+k3j39m74c/ETxSPFXiPS4ru8Xb+8fr8pyO3tXzf8Ats/EjxD8EfhjO/gm6fTzZWirF5f8IVTj09KAPsUfBL4TAY/4RXTf+/IryX41fB74X2XgLU57Xwzp8Ui2lwQyxAEERnFfjL4G+Jv7Y3jvQrbXtL8Qag0F0m9CsZIx9c1J441X9sNvD90NZ1zUJLXypN6tEQCu057+lAHef8E2fAvhDxDrWvJrmk216seu3SKJU3YUTyAD6YFftr/wpP4Tf9Crpv8A35Ffytfsy3vx0t77UD8PNQubWQ38plMKE5m3tuJ565zX3J/bH7bP/Qf1H/v0f8aAP3Ktfg/8MLGZbiz8NafFIhDKyxAEEdDXoqIkSLHGNqqAFA6ADoK/Kv8AY9v/ANoy58dXafE/VLu70/yB5aTIVAbDe/0r9VUzsXPXAzQA6iiigAooooAKKKKACiiigAooooAKKKKACiiigAooooAjl+4a/mJ+FvxN8I/Df9rrx7f+LNQjsYTr27dJ0wI4/wDCv6dpfuGv5ZPCXwe0P4uftZePNM1uFJoxrhTD9MFI/r60Afur/wAN3/s2/wDQ4Wf50f8ADd/7Nv8A0OFn+deD/wDDs/4Uf9Au0/If4Uf8Oz/hR/0C7T8h/hQBvfHH9tX9n3xD8L9c0fS/FdpNc3EBWNFPLGvkX/glvqNpqvxf8W31lIJIZLUFWHQ8GvUPjB/wTw+GPhX4eaxr1nptsk1pCXVgBkH8q8m/4JW6TDonxY8V6bbgKkVqAAOnQ0AfvPRRRQAUUUUAFFFFABRRRQAUUUUAFFFFABRRRQAUUUUAFeNfHj/knWofQ/8AoLV7LXjXx4/5J1qH0P8A6C1AH5K/8E0f+SifEX/sLt/NK/c+v5kP2Uv2ltJ+AvxG8dLqWmy332vVHceX2xt/wr9I/wDh514Q/wChauvzNAH6mUyT7hr8tv8Ah514Q/6Fq6/M0xv+CnPhEggeGrr9aAPhr4a/8nxeN/8AsLJ/IV/RfB/qI/8AdX+VfzNfs3+M7f4g/tY+JfF9rC1vHqOopIsbdVGBX9MsH+oj/wB1f5UAS0UUUAFeOeK/+Rtg/wBz/CvY68c8V/8AI2wf7n+FdGH+JnkZ1/AX+JHrFh/x5w/7oq3VSw/484f90VbrB7nqw+FH/9T9pfi//wAi5F/18J/MV6BoP/IGs/8Arin8q8/+L/8AyLkX/Xwn8xXoGg/8gaz/AOuKfyrol/Bj6s8ah/yM6v8Ahj+pr0UUVznshRRRQAUUUUAFFFFABRRRQAUUUUAFFFFABRRRQAUUUUAFFFFABRRRQAUUUUAFFFFABRRRQAV+Uv8AwU+/5Jbqf/Xr/wCymu+/ak/ao+MXwe8VS6N4G8OQapaogYSSdST/AMBNflh+0V+0V+0T8f8Aw5ceHtY8Iw2sdxH5ZaM8jjHZRQB+xH7CFnZyfAPwuzwRsTYryUBP8q92+OdjYr8PtVIt4gfsdzyEX/nmfavw4+Cv7Xv7SXwf8Eab4M03wbb3EOnwiFXkPJA9fkrqfH/7fX7SWv8Ahu707U/BdrDBNDKjuCMhXUgn7npQB1f/AATEt4Jdc8QeZEj48QXf3lB/5bye1fur/Z9h/wA+0P8A37X/AAr+TX9lL9pT4rfCi/1KfwboEOpPc6jNcyCT+GR5GYj7p6E1+gH/AA8U/ai/6Ea0/Mf/ABFAH7mx2trCd0UMaH1VQP5CrFfhvpv/AAUN/aeutQtrWbwPaLHLKiM2RwCQCfuV+tvwa8a6/wCO/CUeteIrRbO6bbmNenI+goA9booooAKKKKACiiigAooooAKKKKACiiigAooooAKKKKAKl5PHbW7Sy8KvWv5cPA3xs8KfCH9rDx3rXiRZngfXDIPJUscBIx2B9K/pI+Mmt/8ACPeAr/VN23ysc/gf8K/AX9kP4DaT8f8A41/EfVNZXfFaalvB27uCsX+NAH6Q/wDD0f8AZ9/54an/AN+W/wDiaP8Ah6P+z7/zw1P/AL8t/wDE16P/AMMJfC3/AJ5p/wB+hR/wwl8Lf+eaf9+hQB80/GT/AIKSfAvxZ8OdZ8P6bDqIubuEom+FgM+/y14p/wAEr9Xtdd+LPivU7Pd5U1qCu7g9DX1X8bf2LPht4e+GWuavZxp5tvAWX92Bz+dfLP8AwS106HSvi74tsbf7kdqAPyNAH7wUUUUAFFFFABRRRQAUUUUAFFFFABRRRQAUUUUAFFFFABXjXx4/5J1qH0P/AKC1ey1418eP+Sdah9D/AOgtQB+Fn7EvwK8D/F/4i+Pm8XQvKbfVWVNhxwdv+Nfq/wD8MEfAr/n0m/MV8E/8E0f+SifEX/sLt/NK/c+gD4m/4YI+BX/PpN+YqN/2CPgUFJ+yTfmK+3aZJ9w0AfzV/Afwtpngz9sLxX4b0dStnZamiRA9QMCv6UoP9RH/ALq/yr+dD4a/8nxeN/8AsLJ/IV/RfB/qI/8AdX+VAEtFFFABXjniv/kbYP8Ac/wr2OvHPFf/ACNsH+5/hXRh/iZ5GdfwF/iR6xYf8ecP+6Kt1UsP+POH/dFW6we56sPhR//V/aX4v/8AIuRf9fCfzFegaD/yBrP/AK4p/KvP/i//AMi5F/18J/MV6BoP/IGs/wDrin8q6JfwY+rPGof8jOr/AIY/qa9FFFc57IUUUUAFFFFABRRRQAUUUUAFFFFABRRRQAUUUUAFFFFABRRRQAUUUUAFFFFABRRRQAUUUUAcbrngDwj4lnNzremxXUp6s/WsD/hS/wAM/wDoBW/5GvUaKAPLv+FL/DP/AKAVv+RryP41fCH4d2fgLU57bRbdHW0uCCAeCIzivq2vPPif4dvPFHhK+0iwIE09vNGpbpl0IHpQB+Hv/BNnwP4W8Q61ryaxYR3Ij126jUOOiieQAV+2n/Cl/hn/ANAK3/I18G/sS/sueO/glqer3XiiWB1u9WuLtPL/ALkkrsP4j2NfqHQB5gnwa+GsbK6aHbhlOQcHr+dd/pul2GkW4tdPhEMQ/hXpWhRQAUUUUAFFFFABRRRQAUUUUAFFFFABRRRQAUUUUAFFFFAH5sf8FGvjba+BvhHq/hO0kC6rdRLJCFb58bG6D8RXKf8ABM34Zal4T8Oav4w1KFkfxJElxucY3Z2DP/jtei/tQfsg33x7+JGn+JJ/KfTLa28mVHIDE4Qdz/sntX2x8PfCdt4I8HaV4YtkCJp9uIQB0wCT/WgDtaztT1XTtGtWvdUuEtoF4MkhworRrxb49eBdf+Inw+u/DfhqVIb2Ygo0hwo4I9R/OgDz/wDaJ+JXgSb4P+I4odbtHc2xAUPyf0r81f8AgmCwufjB4tvYfmhkthscdDwelVNb/YD/AGpdee5sL/WdPfTbhiGj3DJT/v6f5V+gf7JH7K8X7Pmnb7qOP+0ZYfLneMgg8exP86APtuiiigAooooAKKKKACiiigAooooAKKKKACiiigAooooAK8a+PH/JOtQ+h/8AQWr2WvP/AImeGL3xd4UutF09lWaYEKW6dCPUetAH8z/7PX7Tutfs/wDxH8bppXhi58Qfa9Tdj5H8GNvB+ZfSvuz/AIek+Nf+iWan+Q/+O16x+zX+wZrXw98V+KNb+I/2a7i1a9NxbCErlUO3ry3PFfdv/DPXwx/6Bw/8d/8AiaAPy6/4ek+Nf+iWan+Q/wDjtNf/AIKkeNipH/CrNSH4f/ba/Uf/AIZ6+GP/AEDh/wCO/wDxNNb9nn4ZEYGnD/x3/wCJoA/n1/ZZ8a3PxE/aj1/xjd2L6dLqOoJK1tJ96M4HB5Nf07Qf6iP/AHV/lX5IfDj9g/x54H+PuufESGa0TRL68We2iBXeEAHBG729K/XGNSkaqeqqB+VAD6KKKACvHPFf/I2wf7n+Fex1454r/wCRtg/3P8K6MP8AEzyM6/gL/Ej1iw/484f90VbqpYf8ecP+6Kt1g9z1YfCj/9b9pfi//wAi5F/18J/MV6BoP/IGs/8Arin8q8/+L/8AyLkX/Xwn8xXoGg/8gaz/AOuKfyrol/Bj6s8ah/yM6v8Ahj+pr0UUVznshRRRQAUUUUAFFFFABRRRQAUUUUAFFFFABRRRQAUUUUAFFFFABRRRQAUUUUAFFFFABRRRQAUUUUAFIQD1GaWigCNYo0+4oH0GKkoooAKKKKACiiigAooooAKKKKACiiigAooooAKKKKACiiigAooooAKKKKACiiigAooooAKKKKACiiigAooooAKKKKACiiigAooooAKKKKACiiigAooooAKKKKACiiigAooooAKKKKACvHPFf/I2wf7n+Fex1454r/5G2D/c/wAK6MP8TPIzr+Av8SPWLD/jzh/3RVuqlh/x5w/7oq3WD3PVh8KP/9f9pfi//wAi5F/18J/MV6BoP/IGs/8Arin8q8++L5A8Nxf9d0/mK9B0H/kDWf8A1xT+VdEv4MfVnjUP+RnV/wAMf1Neiiiuc9kKKKKACiiigAooooAKKKKACiiigAooooAKKKKACiiigAooooAKKKKACiiigAooooAKKKKACiiigAooooAKKKKACiiigAooooAKKKKACiiigAooooAKKKKACiiigAooooAKKKKACiiigAooooAKKKKACiiigAooooAKKKKACiiigAooooAKKKKACiiigAooooAKKKKACiiigAooooAKKKKACiiigArxzxX/AMjbB/uf4V7HXjPilg3jGGEfe8v/AArow/xM8jOv4Ef8SPW7D/jzh/3RVuqliCtpEp7KKt1g9z1YfCj/0P28+I2iy63oQt4s7o5BJx6Lz/Sn+B/EEOrWH2RSN1piIj/d4ru3UOpRujAg/jXiuu+F9S8O6iNb0FzHaqS80CDJkY810U2pR5H8jxcbCph8QsZTV09JLy6P5HtlFeR6X8SjMwt7uwmh28F3GBXax+K9JdAzTxqfQms5UproddDM8NVV4S/Q6eiuc/4SjR/+fmP/AL6FH/CUaP8A8/Mf/fQpezl2Oj61R/nX3nR0Vzn/AAlGj/8APzH/AN9Cj/hKNH/5+Y/++hR7OXYPrVH+dfedHRXOf8JRo/8Az8x/99Cj/hKNH/5+Y/8AvoUezl2D61R/nX3nR0Vzn/CUaP8A8/Mf/fQo/wCEo0f/AJ+Y/wDvoUezl2D61R/nX3nR0Vzn/CUaP/z8x/8AfQo/4SjR/wDn5j/76FHs5dg+tUf51950dFc5/wAJRo//AD8x/wDfQo/4SjR/+fmP/voUezl2D61R/nX3nR0Vzn/CUaP/AM/Mf/fQo/4SjR/+fmP/AL6FHs5dg+tUf51950dFc5/wlGj/APPzH/30KP8AhKNH/wCfmP8A76FHs5dg+tUf51950dFc5/wlGj/8/Mf/AH0KP+Eo0f8A5+Y/++hR7OXYPrVH+dfedHRXOf8ACUaP/wA/Mf8A30KP+Eo0f/n5j/76FHs5dg+tUf51950dFc5/wlGj/wDPzH/30KP+Eo0f/n5j/wC+hR7OXYPrVH+dfedHRXOf8JRo/wDz8x/99Cj/AISjR/8An5j/AO+hR7OXYPrVH+dfedHRXOf8JRo//PzH/wB9Cj/hKNH/AOfmP/voUezl2D61R/nX3nR0Vzn/AAlGj/8APzH/AN9Cj/hKNH/5+Y/++hR7OXYPrVH+dfedHRXOf8JRo/8Az8x/99Cj/hKNH/5+Y/8AvoUezl2D61R/nX3nR0Vzn/CUaP8A8/Mf/fQo/wCEo0f/AJ+Y/wDvoUezl2D61R/nX3nR0Vzn/CUaP/z8x/8AfQo/4SjR/wDn5j/76FHs5dg+tUf51950dFc5/wAJRo//AD8x/wDfQo/4SjR/+fmP/voUezl2D61R/nX3nR0Vzn/CUaP/AM/Mf/fQo/4SjR/+fmP/AL6FHs5dg+tUf51950dFc5/wlGj/APPzH/30KP8AhKNH/wCfmP8A76FHs5dg+tUf51950dFc5/wlGj/8/Mf/AH0KP+Eo0f8A5+Y/++hR7OXYPrVH+dfedHRXOf8ACUaP/wA/Mf8A30KP+Eo0f/n5j/76FHs5dg+tUf51950dFc5/wlGj/wDPzH/30KP+Eo0f/n5j/wC+hR7OXYPrVH+dfedHRXOf8JRo/wDz8x/99Cj/AISjR/8An5j/AO+hR7OXYPrVH+dfedHRXOf8JRo//PzH/wB9Cj/hKNH/AOfmP/voUezl2D61R/nX3nR0Vzn/AAlGj/8APzH/AN9Cj/hKNH/5+Y/++hR7OXYPrVH+dfedHRXOf8JRo/8Az8x/99Cj/hKNH/5+Y/8AvoUezl2D61R/nX3nR0Vzn/CUaP8A8/Mf/fQo/wCEo0f/AJ+Y/wDvoUezl2D61R/nX3nR0Vzn/CUaP/z8x/8AfQo/4SjR/wDn5j/76FHs5dg+tUf51950dFc5/wAJRo//AD8x/wDfQo/4SjR/+fmP/voUezl2D61R/nX3nR0Vzn/CUaP/AM/Mf/fQo/4SjR/+fmP/AL6FHs5dg+tUf51950dFc5/wlGj/APPzH/30KP8AhKNH/wCfmP8A76FHs5dg+tUf51950dFc5/wlGj/8/Mf/AH0KP+Eo0f8A5+Y/++hR7OXYPrVH+dfedHRXOf8ACUaP/wA/Mf8A30KP+Eo0f/n5j/76FHs5dg+tUf51950dFc5/wlGj/wDPzH/30KP+Eo0f/n5j/wC+hR7OXYPrVH+dfedHRXOf8JRo/wDz8x/99Cj/AISjR/8An5j/AO+hR7OXYPrVH+dfedHRXOf8JRo//PzH/wB9Cj/hKNH/AOfmP/voUezl2D61R/nX3nR0Vzn/AAlGj/8APzH/AN9Cj/hKNH/5+Y/++hR7OXYPrVH+dfedHRXOf8JRo/8Az8x/99Cj/hKNH/5+Y/8AvoUezl2D61R/nX3nR0Vzn/CUaP8A8/Mf/fQo/wCEo0f/AJ+Y/wDvoUezl2D61R/nX3nR0Vzn/CUaP/z8x/8AfQrG1Lx1Y2SbrdPtB9EOaFTk+hFTHUILmc0dtPMkELzSHCopYn2FeH2LP4k8fw63Z/vLOFTGzD7u4ED+lVrzxJr/AI5nGlaXBNpyqwaR3B2uh6j8hXq3hbw7b+HbD7NCoDMQzEd2PU1vb2UXfdnkOr/aNaKpr93F3v3a7fqdOqhQFHQU6iiuU+hP/9H9/KaVDDDAH606igDD1Dw/p+pKVnQDP90AVyT/AAv8Ou24+b/31XpNIa0jVmtmclbAYeq71IJnmv8Awqzw3/01/wC+qP8AhVnhv/pr/wB9V6XRT9tU7mP9k4P/AJ9L7jzT/hVnhv8A6a/99Uf8Ks8N/wDTX/vqvS6KPbVO4f2Tg/8An0vuPNP+FWeG/wDpr/31R/wqzw3/ANNf++q9Loo9tU7h/ZOD/wCfS+480/4VZ4b/AOmv/fVH/CrPDf8A01/76r0uij21TuH9k4P/AJ9L7jzT/hVnhv8A6a/99Uf8Ks8N/wDTX/vqvS6KPbVO4f2Tg/8An0vuPNP+FWeG/wDpr/31R/wqzw3/ANNf++q9Loo9tU7h/ZOD/wCfS+480/4VZ4b/AOmv/fVH/CrPDf8A01/76r0uij21TuH9k4P/AJ9L7jzT/hVnhv8A6a/99Uf8Ks8N/wDTX/vqvS6KPbVO4f2Tg/8An0vuPNP+FWeG/wDpr/31R/wqzw3/ANNf++q9Loo9tU7h/ZOD/wCfS+480/4VZ4b/AOmv/fVH/CrPDf8A01/76r0uij21TuH9k4P/AJ9L7jzT/hVnhv8A6a/99Uf8Ks8N/wDTX/vqvS6KPbVO4f2Tg/8An0vuPNP+FWeG/wDpr/31R/wqzw3/ANNf++q9Loo9tU7h/ZOD/wCfS+480/4VZ4b/AOmv/fVH/CrPDf8A01/76r0uij21TuH9k4P/AJ9L7jzT/hVnhv8A6a/99Uf8Ks8N/wDTX/vqvS6KPbVO4f2Tg/8An0vuPNP+FWeG/wDpr/31R/wqzw3/ANNf++q9Loo9tU7h/ZOD/wCfS+480/4VZ4b/AOmv/fVH/CrPDf8A01/76r0uij21TuH9k4P/AJ9L7jzT/hVnhv8A6a/99Uf8Ks8N/wDTX/vqvS6KPbVO4f2Tg/8An0vuPNP+FWeG/wDpr/31R/wqzw3/ANNf++q9Loo9tU7h/ZOD/wCfS+480/4VZ4b/AOmv/fVH/CrPDf8A01/76r0uij21TuH9k4P/AJ9L7jzT/hVnhv8A6a/99Uf8Ks8N/wDTX/vqvS6KPbVO4f2Tg/8An0vuPNP+FWeG/wDpr/31R/wqzw3/ANNf++q9Loo9tU7h/ZOD/wCfS+480/4VZ4b/AOmv/fVH/CrPDf8A01/76r0uij21TuH9k4P/AJ9L7jzT/hVnhv8A6a/99Uf8Ks8N/wDTX/vqvS6KPbVO4f2Tg/8An0vuPNP+FWeG/wDpr/31R/wqzw3/ANNf++q9Loo9tU7h/ZOD/wCfS+480/4VZ4b/AOmv/fVH/CrPDf8A01/76r0uij21TuH9k4P/AJ9L7jzT/hVnhv8A6a/99Uf8Ks8N/wDTX/vqvS6KPbVO4f2Tg/8An0vuPNP+FWeG/wDpr/31R/wqzw3/ANNf++q9Loo9tU7h/ZOD/wCfS+480/4VZ4b/AOmv/fVH/CrPDf8A01/76r0uij21TuH9k4P/AJ9L7jzT/hVnhv8A6a/99Uf8Ks8N/wDTX/vqvS6KPbVO4f2Tg/8An0vuPNP+FWeG/wDpr/31R/wqzw3/ANNf++q9Loo9tU7h/ZOD/wCfS+480/4VZ4b/AOmv/fVH/CrPDf8A01/76r0uij21TuH9k4P/AJ9L7jzT/hVnhv8A6a/99Uf8Ks8N/wDTX/vqvS6KPbVO4f2Tg/8An0vuPNP+FWeG/wDpr/31R/wqzw3/ANNf++q9Loo9tU7h/ZOD/wCfS+480/4VZ4b/AOmv/fVH/CrPDf8A01/76r0uij21TuH9k4P/AJ9L7jzT/hVnhv8A6a/99Uf8Ks8N/wDTX/vqvS6KPbVO4f2Tg/8An0vuPNP+FWeG/wDpr/31R/wqzw3/ANNf++q9Loo9tU7h/ZOD/wCfS+480/4VZ4b/AOmv/fVH/CrPDf8A01/76r0uij21TuH9k4P/AJ9L7jzT/hVnhv8A6a/99Uf8Ks8N/wDTX/vqvS6KPbVO4f2Tg/8An0vuPNP+FWeG/wDpr/31R/wqzw3/ANNf++q9Loo9tU7h/ZOD/wCfS+480/4VZ4b/AOmv/fVH/CrPDf8A01/76r0uij21TuH9k4P/AJ9L7jzT/hVnhv8A6a/99Vqaf4D0TTXDQKxIP8RzXb0nek603uyoZXhIvmjTV/Qrw20EA2xoo9wADVmk70tZncklogooooGf/9k=;" vertex="1" parent="1">
          <mxGeometry x="279.22" y="370" width="50.78" height="30" as="geometry" />
        </mxCell>
        <mxCell id="MBUJ9Oalb3AoI1f_l5G1-9" value="" style="endArrow=classic;html=1;rounded=0;strokeWidth=2;entryX=0.533;entryY=0.591;entryDx=0;entryDy=0;entryPerimeter=0;dashed=1;fillColor=#d5e8d4;strokeColor=#82b366;" edge="1" parent="1">
          <mxGeometry width="50" height="50" relative="1" as="geometry">
            <mxPoint x="304.15999999999997" y="359.98" as="sourcePoint" />
            <mxPoint x="304.11" y="330" as="targetPoint" />
          </mxGeometry>
        </mxCell>
        <mxCell id="MBUJ9Oalb3AoI1f_l5G1-10" value="" style="shape=image;verticalLabelPosition=bottom;labelBackgroundColor=default;verticalAlign=top;aspect=fixed;imageAspect=0;image=data:image/jpeg,/9j/4AAQSkZJRgABAQAASABIAAD/4QBMRXhpZgAATU0AKgAAAAgAAgESAAMAAAABAAEAAIdpAAQAAAABAAAAJgAAAAAAAqACAAQAAAABAAAC2aADAAQAAAABAAADXAAAAAD/7QA4UGhvdG9zaG9wIDMuMAA4QklNBAQAAAAAAAA4QklNBCUAAAAAABDUHYzZjwCyBOmACZjs+EJ+/+ICNElDQ19QUk9GSUxFAAEBAAACJGFwcGwEAAAAbW50clJHQiBYWVogB+EABwAHAA0AFgAgYWNzcEFQUEwAAAAAQVBQTAAAAAAAAAAAAAAAAAAAAAAAAPbWAAEAAAAA0y1hcHBsyhqVgiV/EE04mRPV0eoVggAAAAAAAAAAAAAAAAAAAAAAAAAAAAAAAAAAAAAAAAAKZGVzYwAAAPwAAABlY3BydAAAAWQAAAAjd3RwdAAAAYgAAAAUclhZWgAAAZwAAAAUZ1hZWgAAAbAAAAAUYlhZWgAAAcQAAAAUclRSQwAAAdgAAAAgY2hhZAAAAfgAAAAsYlRSQwAAAdgAAAAgZ1RSQwAAAdgAAAAgZGVzYwAAAAAAAAALRGlzcGxheSBQMwAAAAAAAAAAAAAAAAAAAAAAAAAAAAAAAAAAAAAAAAAAAAAAAAAAAAAAAAAAAAAAAAAAAAAAAAAAAAAAAAAAAAAAAAAAAAAAAAAAAAAAAAAAAAB0ZXh0AAAAAENvcHlyaWdodCBBcHBsZSBJbmMuLCAyMDE3AABYWVogAAAAAAAA81EAAQAAAAEWzFhZWiAAAAAAAACD3wAAPb////+7WFlaIAAAAAAAAEq/AACxNwAACrlYWVogAAAAAAAAKDgAABELAADIuXBhcmEAAAAAAAMAAAACZmYAAPKnAAANWQAAE9AAAApbc2YzMgAAAAAAAQxCAAAF3v//8yYAAAeTAAD9kP//+6L///2jAAAD3AAAwG7/wAARCANcAtkDASIAAhEBAxEB/8QAHwAAAQUBAQEBAQEAAAAAAAAAAAECAwQFBgcICQoL/8QAtRAAAgEDAwIEAwUFBAQAAAF9AQIDAAQRBRIhMUEGE1FhByJxFDKBkaEII0KxwRVS0fAkM2JyggkKFhcYGRolJicoKSo0NTY3ODk6Q0RFRkdISUpTVFVWV1hZWmNkZWZnaGlqc3R1dnd4eXqDhIWGh4iJipKTlJWWl5iZmqKjpKWmp6ipqrKztLW2t7i5usLDxMXGx8jJytLT1NXW19jZ2uHi4+Tl5ufo6erx8vP09fb3+Pn6/8QAHwEAAwEBAQEBAQEBAQAAAAAAAAECAwQFBgcICQoL/8QAtREAAgECBAQDBAcFBAQAAQJ3AAECAxEEBSExBhJBUQdhcRMiMoEIFEKRobHBCSMzUvAVYnLRChYkNOEl8RcYGRomJygpKjU2Nzg5OkNERUZHSElKU1RVVldYWVpjZGVmZ2hpanN0dXZ3eHl6goOEhYaHiImKkpOUlZaXmJmaoqOkpaanqKmqsrO0tba3uLm6wsPExcbHyMnK0tPU1dbX2Nna4uPk5ebn6Onq8vP09fb3+Pn6/9sAQwACAgICAgIDAgIDBAMDAwQFBAQEBAUHBQUFBQUHCAcHBwcHBwgICAgICAgICgoKCgoKCwsLCwsNDQ0NDQ0NDQ0N/9sAQwECAgIDAwMGAwMGDQkHCQ0NDQ0NDQ0NDQ0NDQ0NDQ0NDQ0NDQ0NDQ0NDQ0NDQ0NDQ0NDQ0NDQ0NDQ0NDQ0NDQ0N/90ABAAu/9oADAMBAAIRAxEAPwD9/KKKTI70ALRWDqniHTtJjLXMinHYMM1w1z8XfDtsxVkkbH93n+leNjuIctwcuXE1oxfmzsoZfiayvSg2er0V47/wunw3/wA8ZvyP/wATR/wunw3/AM8ZvyP/AMTXnf675F/0FR/r5HT/AGHj/wDn0z2KivHf+F0+G/8AnjN+R/8AiaP+F0+G/wDnjN+R/wDiaP8AXfIv+gqP9fIP7Dx//PpnsVFeO/8AC6fDf/PGb8j/APE0f8Lp8N/88ZvyP/xNH+u+Rf8AQVH+vkH9h4//AJ9M9iorx3/hdPhv/njN+R/+Jo/4XT4b/wCeM35H/wCJo/13yL/oKj/XyD+w8f8A8+mexUV47/wunw3/AM8ZvyP/AMTR/wALp8N/88ZvyP8A8TR/rvkX/QVH+vkH9h4//n0z2KivHf8AhdPhv/njN+R/+Jo/4XT4b/54zfkf/iaP9d8i/wCgqP8AXyD+w8f/AM+mexUV47/wunw3/wA8ZvyP/wATR/wunw3/AM8ZvyP/AMTR/rvkX/QVH+vkH9h4/wD59M9iorx3/hdPhv8A54zfkf8A4mj/AIXT4b/54zfkf/iaP9d8i/6Co/18g/sPH/8APpnsVFeO/wDC6fDf/PGb8j/8TR/wunw3/wA8ZvyP/wATR/rvkX/QVH+vkH9h4/8A59M9iorx3/hdPhv/AJ4zfkf/AImj/hdPhv8A54zfkf8A4mj/AF3yL/oKj/XyD+w8f/z6Z7FRXjv/AAunw3/zxm/I/wDxNH/C6fDf/PGb8j/8TR/rvkX/AEFR/r5B/YeP/wCfTPYqK8d/4XT4b/54zfkf/iaP+F0+G/8AnjN+R/8AiaP9d8i/6Co/18g/sPH/APPpnsVFeO/8Lp8N/wDPGb8j/wDE0f8AC6fDf/PGb8j/APE0f675F/0FR/r5B/YeP/59M9iorx3/AIXT4b/54zfkf/iaP+F0+G/+eM35H/4mj/XfIv8AoKj/AF8g/sPH/wDPpnsVFeO/8Lp8N/8APGb8j/8AE0f8Lp8N/wDPGb8j/wDE0f675F/0FR/r5B/YeP8A+fTPYqK8d/4XT4b/AOeM35H/AOJo/wCF0+G/+eM35H/4mj/XfIv+gqP9fIP7Dx//AD6Z7FRXjv8Awunw3/zxm/I//E0f8Lp8N/8APGb8j/8AE0f675F/0FR/r5B/YeP/AOfTPYqK8d/4XT4b/wCeM35H/wCJo/4XT4b/AOeM35H/AOJo/wBd8i/6Co/18g/sPH/8+mexUV47/wALp8N/88ZvyP8A8TR/wunw3/zxm/I//E0f675F/wBBUf6+Qf2Hj/8An0z2KivHf+F0+G/+eM35H/4mj/hdPhv/AJ4zfkf/AImj/XfIv+gqP9fIP7Dx/wDz6Z7FRXjv/C6fDf8Azxm/I/8AxNH/AAunw3/zxm/I/wDxNH+u+Rf9BUf6+Qf2Hj/+fTPYqK8d/wCF0+G/+eM35H/4mj/hdPhv/njN+R/+Jo/13yL/AKCo/wBfIP7Dx/8Az6Z7FRXjv/C6fDf/ADxm/I//ABNH/C6fDf8Azxm/I/8AxNH+u+Rf9BUf6+Qf2Hj/APn0z2KivHf+F0+G/wDnjN+R/wDiaP8AhdPhv/njN+R/+Jo/13yL/oKj/XyD+w8f/wA+mexUV47/AMLp8N/88ZvyP/xNH/C6fDf/ADxm/I//ABNH+u+Rf9BUf6+Qf2Hj/wDn0z2KivHf+F0+G/8AnjN+R/8AiaP+F0+G/wDnjN+R/wDiaP8AXfIv+gqP9fIP7Dx//PpnsVFeO/8AC6fDf/PGb8j/APE0f8Lp8N/88ZvyP/xNH+u+Rf8AQVH+vkH9h4//AJ9M9iorx3/hdPhv/njN+R/+Jo/4XT4b/wCeM35H/wCJo/13yL/oKj/XyD+w8f8A8+mexUV47/wunw3/AM8ZvyP/AMTR/wALp8N/88ZvyP8A8TR/rvkX/QVH+vkH9h4//n0z2KivHf8AhdPhv/njN+R/+Jo/4XT4b/54zfkf/iaP9d8i/wCgqP8AXyD+w8f/AM+mexUV47/wunw3/wA8ZvyP/wATR/wunw3/AM8ZvyP/AMTR/rvkX/QVH+vkH9h4/wD59M9iorx3/hdPhv8A54zfkf8A4mj/AIXT4b/54zfkf/iaP9d8i/6Co/18g/sPH/8APpnsVFeO/wDC6fDf/PGb8j/8TR/wunw3/wA8ZvyP/wATR/rvkX/QVH+vkH9h4/8A59M9iorx3/hdPhv/AJ4zfkf/AImj/hdPhv8A54zfkf8A4mj/AF3yL/oKj/XyD+w8f/z6Z7FRXjv/AAunw3/zxm/I/wDxNH/C6fDf/PGb8j/8TR/rvkX/AEFR/r5B/YeP/wCfTPYqK8d/4XT4b/54zfkf/iaP+F0+G/8AnjN+R/8AiaP9d8i/6Co/18g/sPH/APPpnsVFeO/8Lp8N/wDPGb8j/wDE0f8AC6fDf/PGb8j/APE0f675F/0FR/r5B/YeP/59M9iorx3/AIXT4b/54zfkf/iaP+F0+G/+eM35H/4mj/XfIv8AoKj/AF8g/sPH/wDPpnsVFeO/8Lp8N/8APGb8j/8AE0f8Lp8N/wDPGb8j/wDE0f675F/0FR/r5B/YeP8A+fTPYqK8d/4XT4b/AOeM35H/AOJo/wCF0+G/+eM35H/4mj/XfIv+gqP9fIP7Dx//AD6Z7FRXjv8Awunw3/zxm/I//E0qfGfw252+VMPwP+FC43yJu31qP9fIHkmO/wCfTPYaK4PTPiDomqOEibYT/eOP8K7aKaOdQ8TBgR2Oa9zBZlhcXHmw1RSXkcNbDVaTtUjYmoooruMAooooA//Q/fyuC8b+LIvDljncBJKCFB9a72vk/wAX3kut+Lo9MckpHOFI7Y5r4zjfO6uXYFKh/EqPlXzPZyTBRxFf958MdWRaRoGv+Orr+0bvzEtn7oxx+XFeqWvwf0SJAXmkckDO71/OvR9D0mDSbGO1gUAAZ4rarhyTgHAUqKqY+PtKr1bfc3xufV5T5aD5YrZI8p/4VLoX99vy/wDr0f8ACpdC/vt+X/169Wor3f8AU/Jv+geP4nF/bGM/5+M8p/4VLoX99vy/+vR/wqXQv77fl/8AXr1aij/U/Jv+geP4h/bGM/5+M8p/4VLoX99vy/8Ar0f8Kl0L++35f/Xr1aij/U/Jv+geP4h/bGM/5+M8p/4VLoX99vy/+vR/wqXQv77fl/8AXr1aij/U/Jv+geP4h/bGM/5+M8p/4VLoX99vy/8Ar0f8Kl0L++35f/Xr1aij/U/Jv+geP4h/bGM/5+M8p/4VLoX99vy/+vR/wqXQv77fl/8AXr1aij/U/Jv+geP4h/bGM/5+M8p/4VLoX99vy/8Ar0f8Kl0L++35f/Xr1aij/U/Jv+geP4h/bGM/5+M8p/4VLoX99vy/+vR/wqXQv77fl/8AXr1aij/U/Jv+geP4h/bGM/5+M8p/4VLoX99vy/8Ar0f8Kl0L++35f/Xr1aij/U/Jv+geP4h/bGM/5+M8p/4VLoX99vy/+vR/wqXQv77fl/8AXr1aij/U/Jv+geP4h/bGM/5+M8p/4VLoX99vy/8Ar0f8Kl0L++35f/Xr1aij/U/Jv+geP4h/bGM/5+M8p/4VLoX99vy/+vR/wqXQv77fl/8AXr1aij/U/Jv+geP4h/bGM/5+M8p/4VLoX99vy/8Ar0f8Kl0L++35f/Xr1aij/U/Jv+geP4h/bGM/5+M8p/4VLoX99vy/+vR/wqXQv77fl/8AXr1aij/U/Jv+geP4h/bGM/5+M8p/4VLoX99vy/8Ar0f8Kl0L++35f/Xr1aij/U/Jv+geP4h/bGM/5+M8p/4VLoX99vy/+vR/wqXQv77fl/8AXr1aij/U/Jv+geP4h/bGM/5+M8p/4VLoX99vy/8Ar0f8Kl0L++35f/Xr1aij/U/Jv+geP4h/bGM/5+M8p/4VLoX99vy/+vR/wqXQv77fl/8AXr1aij/U/Jv+geP4h/bGM/5+M8p/4VLoX99vy/8Ar0f8Kl0L++35f/Xr1aij/U/Jv+geP4h/bGM/5+M8p/4VLoX99vy/+vR/wqXQv77fl/8AXr1aij/U/Jv+geP4h/bGM/5+M8p/4VLoX99vy/8Ar0f8Kl0L++35f/Xr1aij/U/Jv+geP4h/bGM/5+M8p/4VLoX99vy/+vR/wqXQv77fl/8AXr1aij/U/Jv+geP4h/bGM/5+M8p/4VLoX99vy/8Ar0f8Kl0L++35f/Xr1aij/U/Jv+geP4h/bGM/5+M8p/4VLoX99vy/+vR/wqXQv77fl/8AXr1aij/U/Jv+geP4h/bGM/5+M8p/4VLoX99vy/8Ar0f8Kl0L++35f/Xr1aij/U/Jv+geP4h/bGM/5+M8p/4VLoX99vy/+vR/wqXQv77fl/8AXr1aij/U/Jv+geP4h/bGM/5+M8p/4VLoX99vy/8Ar0f8Kl0L++35f/Xr1aij/U/Jv+geP4h/bGM/5+M8p/4VLoX99vy/+vR/wqXQv77fl/8AXr1aij/U/Jv+geP4h/bGM/5+M8p/4VLoX99vy/8Ar0f8Kl0L++35f/Xr1aij/U/Jv+geP4h/bGM/5+M8p/4VLoX99vy/+vR/wqXQv77fl/8AXr1aij/U/Jv+geP4h/bGM/5+M8p/4VLoX99vy/8Ar0f8Kl0L++35f/Xr1aij/U/Jv+geP4h/bGM/5+M8p/4VLoX99vy/+vR/wqXQv77fl/8AXr1aij/U/Jv+geP4h/bGM/5+M8p/4VLoX99vy/8Ar0f8Kl0L++35f/Xr1aij/U/Jv+geP4h/bGM/5+M8p/4VLoX99vy/+vR/wqXQv77fl/8AXr1aij/U/Jv+geP4h/bGM/5+M8p/4VLoX99vy/8Ar0f8Kl0L++35f/Xr1aij/U/Jv+geP4h/bGM/5+M8p/4VLoX99vy/+vR/wqXQv77fl/8AXr1aij/U/Jv+geP4h/bGM/5+M8p/4VLoX99vy/8Ar0f8Kl0L++35f/Xr1aij/U/Jv+geP4h/bGM/5+M8p/4VLoX99vy/+vR/wqXQv77fl/8AXr1aij/U/Jv+geP4h/bGM/5+M8p/4VLoX99vy/8Ar0f8Kl0L++35f/Xr1aij/U/Jv+geP4h/bGM/5+M8p/4VLoX99vy/+vR/wqXQv77fl/8AXr1aij/U/Jv+geP4h/bGM/5+M8p/4VLoX99vy/8Ar01vhJoTDHmOPoP/AK9esUUnwdkr/wCYeP4h/bON/wCfjPnbxB8JXs4Wm0SWZ5B0GSP61T8EeNL/AEnUBomq8EuIxuOTx9a+lCARg183/FbRU029t9TsxsZcsxXv1r4jiXh6OR2zjKfcUWuaK2aPby3MHjv9jxet9n5n0ZFKsyCRDlT0qWuH+H+ovqHhu1llOXK8k9e1dxX6fl2Mji8LTxMdpJP7z5fEUXSqypvowooortMT/9H9/K+SD/yUW4/6+BX1vXyQf+Si3H/XwK/MfEnbBf8AXz9D6fhv/l9/hPrSP/Vr9BT6ZH/q1+gp9fpq2PmWFFFISAMmmIWis6e/ji4zVI6r6GuWeMpRdmzWNGb6G9RWB/azUf2s1T9fo9yvq8zforA/tZqP7Waj6/R7h9Xmb9FYH9rNR/azUfX6PcPq8zforA/tZqX+1fej6/R7i+rzN6isH+1fej+1fej69R7h7CfY3qKwf7V96UarR9fo9w9hPsbtFYX9q0f2rR9eo9w9hPsbtFYX9q0f2rT+vUe4ewn2N2isL+1aP7Vo+vUe4ewn2N2isL+1aP7VpfXqPcPYT7G7RWF/atH9q0fX6PcPYT7G7RWF/atJ/a3+f8ij6/R7h7CfY3qKwf7V96P7V96Pr1HuHsJ9jeorB/tX3o/tX3o+vUe4ewn2N6isH+1fej+1fej69R7h7CfY3qKwf7V96P7V96Pr1HuHsJ9jeorB/tX3o/tX3o+vUe4ewn2N6isH+1fej+1fel9fo9w9hPsb1FYP9q+9H9q0/r9HuHsJ9jeorB/tX3pP7Waj6/R7h9Xmb9FYA1U9zR/axo+v0e4/q8zforA/tZqP7Waj6/R7h9Xmb9FYH9rNR/azUfX6PcPq8zforA/tZqP7Waj6/R7h9Xmb9FYH9rNR/azUfX6PcPq8zforA/tZqP7Waj6/R7h9Xmb9FYH9rNR/azUfX6PcPq8zforA/tZqP7Waj6/R7h9Xmb9FYH9rNR/azUfX6PcPq8zforA/tZqP7Waj6/R7h9Xmb9FYH9rNR/azUfX6PcPq8zforA/tZqP7Waj6/R7h9Xmb9FYH9rNR/azUfX6PcPq8zforA/tZqP7Waj6/R7h9Xmb9FYH9rNR/azUfX6PcPq8zforA/tZqP7Waj6/R7h9Xmb9FYH9rNR/azUvr9HuH1eZv0Vjx6mhOGNaUcySj5TW9PEU6nwszlTlHcmooorYgK8Y+LgBsVP8AsV7PXjPxb/48V/3a+S44/wCRLX9D1sj/AN9gaXwqJPh22H+x/hXqleV/Cr/kXrb/AHK9Urq4R/5FGH/wr8jLNv8Ae5+rCiiivozzj//S/fyvkg/8lFuP+vgV9b18kH/kotx/18CvzHxJ2wX/AF8/Q+n4b/5ff4T60j/1a/QU+mR/6tfoKfX6atj5lhWLqF3szGvWtaQ4Rj7VyF0xaYk+tefmNdwhZdTfDwvK7ICxbqc02iivnGz0AooooAKKKKACiiigAooooAKKKKACiiigAooooAKKKKACiiigAooooAKKKKACiiigAooooAKKKKACiiigAooooAKKKKACiiigAooooAKKKKACiiigAooooAKKKKACiiigAooooAKKKKACiiigAooooAKKKKACiiigAooooAKKKKACiiigAooooAKKKKACiiigAooooAUZHIq5aXTROMniqVFXCo4O8RNJqzO2hlEiBhU1ZOlvuQj0rWr6vD1OempHl1I8srBXjPxb/wCPFf8Adr2avGfi3/x4r/u18zxx/wAiWt6Hp5H/AL7A0vhV/wAi9bf7leqV5X8Kv+Retv8Acr1SunhL/kUYf/CvyM82/wB7n6hRRRX0Z5p//9P9/K+SD/yUW4/6+BX1vXyQf+Si3H/XwK/MfEnbBf8AXz9D6fhv/l9/hPrSP/Vr9BT6ZH/q1+gp9fpq2PmWRzf6s1xs/wDrDXZTf6s1xs/+sNePmv2TswnUhooorxDrCiiigAooooAKKKKACiiigAooooAKKKKACiiigAooooAKKKKACiiigAooooAKKKKACiiigAooooAKKKKACiiigAooooAKKKKACiiigAooooAKKKKACiiigAooooAKKKKACiiigAooooAKKKKACiiigAooooAKKKKACiiigAooooAKKKKACiiigAooooAKKKKACiiigAooooA6LSfuv9K2qxdJ+6/0rar6nA/wInm1/jYV4z8W/wDjxX/dr2avGfi3/wAeK/7tfPccf8iWt6HoZH/vsDS+FX/IvW3+5XqleV/Cr/kXrb/cr1SunhL/AJFGH/wr8jPNv97n6hRRRX0Z5p//1P38r5IP/JRbj/r4FfW9fJB/5KLcf9fAr8x8SdsF/wBfP0Pp+G/+X3+E+tI/9Wv0FPpkf+rX6Cn1+mrY+ZZHN/qzXGz/AOsNdlN/qzXGz/6w14+a/ZOzCdSGiiivEOsKKKKACiiigAooooAKKKKACiiigAooooAKKKKACiiigAooooAKKKKACiiigAooooAKKKKACiiigAooooAKKKKACiiigAooooAKKKKACiiigAooooAKKKKACiiigAooooAKKKKACiiigAooooAKKKKACiiigAooooAKKKKACiiigAooooAKKKKACiiigAooooAKKKKACiiigDotJ+6/0rarF0n7r/StqvqcD/BR5tf42FeM/Fv/AI8V/wB2vZq8Z+Lf/Hiv+7Xz3HH/ACJa3oehkf8AvsDS+FX/ACL1t/uV6pXlfwq/5F62/wByvVK6eEv+RRh/8K/Izzb/AHufqFFFFfRnmn//1f38r5IP/JRbj/r4FfW9fJB/5KLcf9fAr8x8SdsF/wBfP0Pp+G/+X3+E+tI/9Wv0FPpkf+rX6Cn1+mrY+ZZHN/qzXGz/AOsNdlN/qzXGz/6w14+a/ZOzCdSGiiivEOsKKKKACiiigAooooAKKKKACiiigAooooAKKKKACiiigAooooAKKKKACiiigAooooAKKKKACiiigAooooAKKKKACiiigAooooAKKKKACiiigAooooAKKKKACiiigAooooAKKKKACiiigAooooAKKKKACiiigAooooAKKKKACiiigAooooAKKKKACiiigAooooAKKKKACiiigDotJ+6/0rarF0n7r/StqvqcD/BR5tf42FeM/Fv/AI8V/wB2vZq8Z+Lf/Hiv+7Xz3HH/ACJa3oehkf8AvsDS+FX/ACL1t/uV6pXlfwq/5F62/wByvVK6eEv+RRh/8K/Izzb/AHufqFFFFfRnmn//1v38r5IP/JRbj/r4FfW9fJB/5KLcf9fAr8x8SdsF/wBfP0Pp+G/+X3+E+tI/9Wv0FPpkf+rX6Cn1+mrY+ZZHN/qzXGz/AOsNdlN/qzXGz/6w14+a/ZOzCdSGiiivEOsKKKKACiiigAooooAKKKKACiiigAooooAKKKKACiiigAooooAKKKKACiiigAooooAKKKKACiiigAooooAKKKKACiiigAooooAKKKKACiiigAooooAKKKKACiiigAooooAKKKKACiiigAooooAKKKKACiiigAooooAKKKKACiiigAooooAKKKKACiiigAooooAKKKKACiiigDotJ+6/0rarF0n7r/StqvqcD/BR5tf42FeM/Fv/AI8V/wB2vZq8Z+Lf/Hiv+7Xz3HH/ACJa3oehkf8AvsDS+FX/ACL1t/uV6pXlfwq/5F62/wByvVK6eEv+RRh/8K/Izzb/AHufqFFFFfRnmn//1/38r5IP/JRbj/r4FfW9fJB/5KLcf9fAr8x8SdsF/wBfP0Pp+G/+X3+E+tI/9Wv0FPpkf+rX6Cn1+mrY+ZZHN/qzXGz/AOsNdlN/qzXGz/6w15Ga/ZOzCdSGiiivDOsKKKKACiiigAooooAKKKKACiiigAooooAKKKKACiiigAooooAKKKKACiiigAooooAKKKKACiiigAooooAKKKKACiiigAooooAKKKKACiiigAooooAKKKKACiiigAooooAKKKKACiiigAooooAKKKKACiiigAooooAKKKKACiiigAooooAKKKKACiiigAooooAKKKKACiiigDotJ+6/0rarF0n7r/StqvqcD/BR5tf42FeM/Fv/AI8V/wB2vZq8Z+Lf/Hiv+7Xz3HH/ACJa3oehkf8AvsDS+FX/ACL1t/uV6pXlfwq/5F62/wByvVK6eEv+RRh/8K/Izzb/AHufqFFFFfRnmn//0P38r5IP/JRbj/r4FfW9fJB/5KLcf9fAr8x8SdsF/wBfP0Pp+G/+X3+E+tI/9Wv0FPpkf+rX6Cn1+mrY+ZZHN/qzXGz/AOsNdlN/qzXGz/6w15Ga7ROzCdSGiiivDOsKKKKACiiigAooooAKKKKACiiigAooooAKKKKACiiigAooooAKKKKACiiigAooooAKKKKACiiigAooooAKKKKACiiigAooooAKKKKACiiigAooooAKKKKACiiigAooooAKKKKACiiigAooooAKKKKACiiigAooooAKKKKACiiigAooooAKKKKACiiigAooooAKKKKACiiigDotJ+6/0rarF0n7r/StqvqcD/BR5tf42FeM/Fv/AI8V/wB2vZq8Z+Lf/Hiv+7Xz3HH/ACJa3oehkf8AvsDS+FX/ACL1t/uV6pXlfwq/5F62/wByvVK6eEv+RRh/8K/Izzb/AHufqFFFFfRnmn//0f38r5IP/JRbj/r4FfW9fJB/5KLcf9fAr8x8SdsF/wBfP0Pp+G/+X3+E+tI/9Wv0FPpkf+rX6Cn1+mrY+ZZHN/qzXHz/AOtP1rsJv9Wa4+f/AFp+teRm2yOvC9SvRRRXhnYFFFFABRRRQAUUUUAFFFFABRRRQAUUUUAFFFFABRRRQAUUUUAFFFFABRRRQAUUUUAFFFFABRRRQAUUUUAFFFFABRRRQAUUUUAFFFFABRRRQAUUUUAFFFFABRRRQAUUUUAFFFFABRRRQAUUUUAFFFFABRRRQAUUUUAFFFFABRRRQAUUUUAFFFFABRRRQAUUUUAFFFFABRRRQB0Wk/df6VtVi6T91/pW1X1OB/go82v8bCvGfi3/AMeK/wC7Xs1eM/Fv/jxX/dr57jj/AJEtb0PQyP8A32BpfCr/AJF62/3K9Uryv4Vf8i9bf7leqV08Jf8AIow/+FfkZ5t/vc/UKKKK+jPNP//S/fyvkg/8lFuP+vgV9b18kH/kotx/18CvzHxJ2wX/AF8/Q+n4b/5ff4T60j/1a/QU+mR/6tfoKfX6atj5lkc3+rNcfP8A60/Wuwm/1Zrj5/8AWn615GbbI68L1K9FFFeGdgUUUUAFFFFABRRRQAUUUUAFFFFABRRRQAUUUUAFFFFABRRRQAUUUUAFFFFABRRRQAUUUUAFFFFABRRRQAUUUUAFFFFABRRRQAUUUUAFFFFABRRRQAUUUUAFFFFABRRRQAUUUUAFFFFABRRRQAUUUUAFFFFABRRRQAUUUUAFFFFABRRRQAUUUUAFFFFABRRRQAUUUUAFFFFAHRaT91/pW1WLpP3X+lbVfU4H+Cjza/xsK8Z+Lf8Ax4r/ALtezV4z8W/+PFf92vnuOP8AkS1vQ9DI/wDfYGl8Kv8AkXrb/cr1SvK/hV/yL1t/uV6pXTwl/wAijD/4V+Rnm3+9z9Qooor6M80//9P9/K+SD/yUW4/6+BX1vXyQf+Si3H/XwK/MfEnbBf8AXz9D6fhv/l9/hPrSP/Vr9BT6ZH/q1+gp9fpq2PmWRzf6s1x8/wDrT9a7Cb/VmuPn/wBafrXkZtsjrwvUr0UUV4Z2BRRRQAUUUUAFFFFABRRRQAUUUUAFFFFABRRRQAUUUUAFFFFABRRRQAUUUUAFFFFABRRRQAUUUUAFFFFABRRRQAUUUUAFFFFABRRRQAUUUUAFFFFABRRRQAUUUUAFFFFABRRRQAUUUUAFFFFABRRRQAUUUUAFFFFABRRRQAUUUUAFFFFABRRRQAUUUUAFFFFABRRRQAUUUUAdFpP3X+lbVYuk/df6VtV9Tgf4KPNr/Gwrxn4t/wDHiv8Au17NXjPxb/48V/3a+e44/wCRLW9D0Mj/AN9gaXwq/wCRetv9yvVK8r+FX/IvW3+5XqldPCX/ACKMP/hX5Gebf73P1CiiivozzT//1P38r5IP/JRbj/r4FfW9fJB/5KLcf9fAr8x8SdsF/wBfP0Pp+G/+X3+E+tI/9Wv0FPpkf+rX6Cn1+mrY+ZZHN/qzXHz/AOtP1rsJv9Wa4+f/AFp+teRm2yOvC9SvRRRXhnYFFFFABRRRQAUUUUAFFFFABRRRQAUUUUAFFFFABRRRQAUUUUAFFFFABRRRQAUUUUAFFFFABRRRQAUUUUAFFFFABRRRQAUUUUAFFFFABRRRQAUUUUAFFFFABRRRQAUUUUAFFFFABRRRQAUUUUAFFFFABRRRQAUUUUAFFFFABRRRQAUUUUAFFFFABRRRQAUUUUAFFFFABRRRQB0Wk/df6VtVi6T91/pW1X1OB/go82v8bCvGfi3/AMeK/wC7Xs1eM/Fv/jxX/dr57jj/AJEtb0PQyP8A32BpfCr/AJF62/3K9Uryv4Vf8i9bf7leqV08Jf8AIow/+FfkZ5t/vc/UKKKK+jPNP//V/fyvkg/8lFuP+vgV9b18kH/kotx/18CvzHxJ2wX/AF8/Q+n4b/5ff4T60j/1a/QU+mR/6tfoKfX6atj5lkc3+rNcfP8A60/Wuwm/1Zrj5/8AWn615Ga7ROvC9SvRRRXhnYFFFFABRRRQAUUUUAFFFFABRRRQAUUUUAFFFFABRRRQAUUUUAFFFFABRRRQAUUUUAFFFFABRRRQAUUUUAFFFFABRRRQAUUUUAFFFFABRRRQAUUUUAFFFFABRRRQAUUUUAFFFFABRRRQAUUUUAFFFFABRRRQAUUUUAFFFFABRRRQAUUUUAFFFFABRRRQAUUUUAFFFFABRRRQB0Wk/df6VtVi6T91/pW1X1OB/go82v8AGwrxn4t/8eK/7tezV4z8W/8AjxX/AHa+e44/5Etb0PQyP/fYGl8Kv+Retv8Acr1SvK/hV/yL1t/uV6pXTwl/yKMP/hX5Gebf73P1CiiivozzT//W/fyvkg/8lFuP+vgV9b18kH/kotx/18CvzHxJ2wX/AF8/Q+n4b/5ff4T60j/1a/QU+mR/6tfoKfX6atj5lkc3+rNcfP8A60/Wuwm/1Zrjrj/WmvIzXaJ2YPdkFFFFeGdYUUUUAFFFFABRRRQAUUUUAFFFFABRRRQAUUUUAFFFFABRRRQAUUUUAFFFFABRRRQAUUUUAFFFFABRRRQAUUUUAFFFFABRRRQAUUUUAFFFFABRRRQAUUUUAFFFFABRRRQAUUUUAFFFFABRRRQAUUUUAFFFFABRRRQAUUUUAFFFFABRRRQAUUUUAFFFFABRRRQAUUUUAFFFFAHRaT91/pW1WLpP3X+lbVfU4H+Cjza/xsK8Z+Lf/Hiv+7Xs1eM/Fv8A48V/3a+e44/5Etb0PQyP/fYGl8Kv+Retv9yvVK8r+FX/ACL1t/uV6pXTwl/yKMP/AIV+Rnm3+9z9Qooor6M80//X/fyvkg/8lFuP+vgV9b18kH/kotx/18CvzHxJ2wX/AF8/Q+n4b/5ff4T60j/1a/QU+mR/6tfoKfX6atj5lkc3+rNcbP8A6w12U3+rNcbP/rDXkZrtE7MJ1IaKKK8M6wooooAKKKKACiiigAooooAKKKKACiiigAooooAKKKKACiiigAooooAKKKKACiiigAooooAKKKKACiiigAooooAKKKKACiiigAooooAKKKKACiiigAooooAKKKKACiiigAooooAKKKKACiiigAooooAKKKKACiiigAooooAKKKKACiiigAooooAKKKKACiiigAooooAKKKKAOi0n7r/StqsXSfuv9K2q+pwP8FHm1/jYV4z8W/8AjxX/AHa9mrxn4t/8eK/7tfPccf8AIlreh6GR/wC+wNL4Vf8AIvW3+5XqleV/Cr/kXrb/AHK9Urp4S/5FGH/wr8jPNv8Ae5+oUUUV9Geaf//Q/fyvkg/8lFuP+vgV9b18kH/kotx/18CvzHxJ2wX/AF8/Q+n4b/5ff4T60j/1a/QU+mR/6tfoKfX6atj5lkc3+rNcbP8A6w12U3+rNcbP/rDXkZrtE7MJ1IaKKK8M6wooooAKKKKACiiigAooooAKKKKACiiigAooooAKKKKACiiigAooooAKKKKACiiigAooooAKKKKACiiigAooooAKKKKACiiigAooooAKKKKACiiigAooooAKKKKACiiigAooooAKKKKACiiigAooooAKKKKACiiigAooooAKKKKACiiigAooooAKKKKACiiigAooooAKKKKAOi0n7r/StqsXSfuv9K2q+pwP8FHm1/jYV4z8W/8AjxX/AHa9mrxn4t/8eK/7tfPccf8AIlreh6GR/wC+wNL4Vf8AIvW3+5XqleV/Cr/kXrb/AHK9Urp4S/5FGH/wr8jPNv8Ae5+oUUUV9Geaf//R/fyvkg/8lFuP+vgV9b18kH/kotx/18CvzHxJ2wX/AF8/Q+n4b/5ff4T60j/1a/QU+mR/6tfoKfX6atj5lkc3+rNcbP8A6w12U3+rNcbP/rDXkZrtE7MJ1IaKKK8M6wooooAKKKKACiiigAooooAKKKKACiiigAooooAKKKKACiiigAooooAKKKKACiiigAooooAKKKKACiiigAooooAKKKKACiiigAooooAKKKKACiiigAooooAKKKKACiiigAooooAKKKKACiiigAooooAKKKKACiiigAooooAKKKKACiiigAooooAKKKKACiiigAooooAKKKKAOi0n7r/StqsXSfuv9K2q+pwP8FHm1/jYV4z8W/8AjxX/AHa9mrxn4t/8eK/7tfPccf8AIlreh6GR/wC+wNL4Vf8AIvW3+5XqleV/Cr/kXrb/AHK9Urp4S/5FGH/wr8jPNv8Ae5+oUUUV9Geaf//S/fyvkg/8lFuP+vgV9b18kH/kotx/18CvzHxJ2wX/AF8/Q+n4b/5ff4T60j/1a/QU+mR/6tfoKfX6atj5lkc3+rNcbP8A6w12U3+rNcbP/rDXkZrtE7MJ1IaKKK8M6wooooAKKKKACiiigAooooAKKKKACiiigAooooAKKKKACiiigAooooAKKKKACiiigAooooAKKKKACiiigAooooAKKKKACiiigAooooAKKKKACiiigAooooAKKKKACiiigAooooAKKKKACiiigAooooAKKKKACiiigAooooAKKKKACiiigAooooAKKKKACiiigAooooAKKKKAOi0n7r/StqsXSfuv9K2q+pwP8FHm1/jYV4z8W/8AjxX/AHa9mrxn4t/8eK/7tfPccf8AIlreh6GR/wC+wNL4Vf8AIvW3+5XqleV/Cr/kXrb/AHK9Urp4S/5FGH/wr8jPNv8Ae5+oUUUV9Geaf//T/fyvkg/8lFuP+vgV9b18kH/kotx/18CvzHxJ2wX/AF8/Q+n4b/5ff4T60j/1a/QU+mR/6tfoKfX6atj5lkc3+rNcbP8A6w12U3+rNcbP/rDXkZrtE7MJ1IaKKK8M6wooooAKKKKACiiigAooooAKKKKACiiigAooooAKKKKACiiigAooooAKKKKACiijOOTQAVDLcwQczOE+tcz4h8TW2kRMN3zj05ryKfVvEHii4K2zER5xyDXy+b8UUMHP2FJc9Tsj1cHlU6y55O0e57Bd+LdLtSV81GI96y/+E+03OMr+dcbZ/Di4mAlvcMW5ODWuvw007bgj5v8Aerxvr/Edb34UlFeZ2fV8uhpKbbOts/F2l3JCmVFJ966KG7t5xmKRW+hrxy6+G00X7yz+Ujpz/wDXrCjvfEHhqbE7ExqewJ4px4mzDBtLMqFo90J5Zh6y/wBmnr2Z9E0VxvhvxVbaxGqscSY5ycV2IIPNfa4LG0cXSVag7pni1qE6UuSa1FooorrMQooooAKKK5nVfFNhpE6wXKtlmCggcZJxXPisXRw8PaV5cq7s0pUp1JcsFdnTUVHDKs0ayochgD+dEsiwoZG6DrW3Mrc19COV3sSUVytl4ssL3UZNOhDb4up7V1IOawwuMo4iLlRldLQ0q0J03aasLRRSZrpMhaKj82Lu6/mKXzof76/mP8aXMu47MfRXIaj4x03TryKzlyWkbaCOldPDdQTIJFdcH3FclDMMPWnKnSmm47+RtPD1IRUpKyZYopnnQ/31/Mf40CSNuFYH6Guu67mPKx9FFFMQUUUUAFFFFABRRRQAUUUUAFFFFABRRRQAUUUUAFFFFABRRRQAUUUUAFFFFABRRRQB0Wk/df6VtVi6T91/pW1X1OB/go82v8bCvGfi3/x4r/u17NXjPxb/AOPFf92vnuOP+RLW9D0Mj/32BpfCr/kXrb/cr1SvK/hV/wAi9bf7leqV08Jf8ijD/wCFfkZ5t/vc/UKKKK+jPNP/1P38r5IP/JRbj/r4FfW9fJB/5KLcf9fAr8x8SdsF/wBfP0Pp+G/+X3+E+tI/9Wv0FPpkf+rX6Cn1+mrY+ZZHN/qzXGz/AOsNdlN/qzXGz/6w14+bbROzCdSGiiivEOsKKKKACiiigAooooAKKKKACiiigAooooAKKKKACiiigAooooAKKKKACiiigArnvEWrppVkzsQCynFdDXgnjfUJr/VIdPjJwJNpAr57ibNHgcG5w+J6I9HLML7esk9lqyhplle+K9SM8mTEffjivctK0a10yARxoM4GSRzms/wvpcOl6ckZQK46mum3p61y8N5FDDUliK+tWWrbNcyx8qsvZw0ihRhR7CvOJPE4t/E01izfKABg/U12+qXSW2nzT7sbFzXyrf6pJc68L1HPzSLkg9ga8/jLPngHRjTet7/LY6MmwCxHO5bWPrlMOinrkA/nWXqOj2uoRmOVFyRjOOaTR7+K9sYpEYHCqOPUCtXenrX2K9jiaKcrOLR4/v0p6aNHz3rWkXfhjURdWe7yi47nGK9c8L65Fq1krbgX6H8Kt67pkGp2UiHGVUkV494SvpNF13+z5M7ck18EoSyPM4xj/BqP7me82sdhW38cT6AopkbCRFcdxmn1+jp3V0fNsKr3U32eFpR2qxTWRXGxxkVM03FqL1Kja+p5bcePpYLh4Qq/KcVxHifX31qOPCqGRw2R14r1PV5fDumuDdQRbn7nNY39t+E/+eEP61+aZrRxFVTw2JxkbPpqfS4SdOHLVp0Wc5pXjy50+zEdwF+XA5qe++IM17YywwhcsMcVB4p1Tw9caTJHZQxLISMFc5ql4R1LQ7aBxfxxsT03V5H9o4yFdZesWuRrfp6HX9Woyh9YdJ3vsZnhvXJdKupLyUKXkGDu5ruk+IMxZV2pyQKs/wBt+E/+eEP61oaXd+GdSuRbwW8RbrxmvSyyhXoRjhsNjI6vz3ZzYmpTqN1KtFna2Nybq3SY/wASg0+8ErWsqwjLlTt+tTRIkaBYxtUDAFcl4s1TUdMiiawtnuCx5Cdv1r9CxeIWGwjqVruy1tufPUaftKqjA4efT/F+5nWFsDJ6n/CuWi1TxE+opp20+c2cLk10p8WeJCMHS5sfh/jXIXL+IJtUj1OLT5Y2j7DGf51+RZjWpLllhZ1Hrro9vuPr8NCWqqqO2mv/AATXvfCfia/kSaS3O5DkHJ/wq21h4r062JeJgqAnOT2/CrUXirxMiBTpkxIHXj/GqOp694m1CDyBp8yZzk8f41rOGXU4yq0XV535P/5ElPESajNRt6/8Eo6RfeJdXJFshcKxU8nqK7/QbPxHFdKb6IqueTk159oF7r+hwNEumyuzNuzx3/Gumg8V+JGkAOmTAHqf8mtslxVCnGFTEzqc/azt+RnjaU5NxpqNvVf5ns9FZ+lTzXFlHNcIY3bqp6itCv16lUVSCmup8hOLi3FhRRRWhIUUUUAFFFFABRRRQAUUUUAFFFFABRRRQAUUUUAFFFFABRRRQAUUUUAFFFFAHRaT91/pW1WLpHR62q+pwP8ABR5tf42FeM/Fv/jxX/dr2avGfi3/AMeK/wC7Xz3HH/Ilreh6GR/77A0vhV/yL1t/uV6pXlfwq/5F62/3K9Urp4S/5FGH/wAK/Izzb/e5+oUUUV9Geaf/1f38r5IP/JRbj/r4FfW9fJB/5KLcf9fAr8x8SdsF/wBfP0Pp+G/+X3+E+tI/9Wv0FPpkf+rX6Cn1+mrY+ZZHN/qzXGz/AOsNdlN/qzXGz/6w15Ga/ZOzCdSGiiivDOsKKKKACiiigAooooAKKKKACiiigAooooAKKKKACiiigAooooAKKKKACiiigCvdSGKFnHUV8/WKNf8Ai2d5OdkoIr32/UtaOB1IrwXQnEXiq5VupkFfA8Ye9isLCXw8x9Bk+lKrJb2PbdUt7+W026c4SQDqfp9a8J1vX/GmjXJhmuGYdchTj+dfRy9BWTqmi2eqwNDcKPm7gDNerxBkVbGU+fC1ZQmuzdmcmX46FGVqsE4+h83L4n8S6xFJaSXOVcbSpB5/WtNfBM50iK6Rf32ck49MVlXdp/YniARQ/cEuBnuK9hg8X6THavZTsBOqH5cDGcV+ZZTgqGKnUjmtV80bpXd9fK59Pi606Ki8JHR66Hjq6/4i0JTaw3GwA9P8mtTSvE3jPU7hIIZ3+c4yVOP51n21t/bviJbe9+VXJxt9M8elfRGi6FY6XbqsCA8DkjmunhzKcdj6r9nXlGlF23d/uuZZji6GHiuamnN+Qmj2mpJaBdTkEkhGCR3/AFNeM+J4zpviwMvoP1NfQv3R7V8/+OXWbxOqJ1wv86+u4zw0KOX01FtuMla+rPJyWq54iV1o0z3XTm3WMDnugNXKo6WMadbj/pmKvV9zh3elFvsjwanxMKrXF1DaxmSUhVXqSas1i63pEesWjWsjMob+6ef5ipxUqsaUnRV5dEOkouaU3oc3qcXhfV2Vr8I5Xp84rL/sDwN/zzT/AL7X/Cqkvw60yHHmXEwz/tH/AOKqH/hAdI/5+Jv++z/8VX5/XpY6pNzrYSm5ebX+R9FTnQjG0K0ren/BMzxRpHhS20mSTT41EwIxhgf6VT8JaX4ZuYHOpIpcdMsB/MVvH4f6Oww1xKR7t/8AZUi/D7Rl4WeUfRj/APFV48soxjxixX1anZK3LdW9djrWLoqj7L2sr97Gn/YHgb/nmn/fa/4Ve02y8JaXcC6slSOQDAO8f4Vgf8IDpH/PxN/32f8A4qpYvh5pkrYSeYn/AHj/APFV61KjjITUqeDpprazX+RyzqUWrSrSt6f8E9Rsr63vEJgYMF4ODmruM1znhzQItBheGJ2becncSf55ro6/QMFOtOhGWIjaXVHz1dQjNqm7o8s8XeJrzSrs29s5XkAfjWPHrniZ1DiVsEZ+6f8AGqHxCMo1U+SAW3DGfXNX7aTxyIIxHaQldo2nA6flX5hisdiamY1qbnO0Xpypv9T6elQpxw8JJRu++hJ/bPif/nq3/fJ/xo/tnxP/AM9W/wC+T/jTvM8ef8+cH5D/AAo8zx5/z5wfkP8ACn7St/NW/wDAX/mP2cO0PvX+RQvfE/iGwh8+aRtowOhH9a9M8ManJqloJZjuOAa8f8TP4rOmv/alvFHBkZKjn+Qr0zwF/wAg0f7ort4dxuIeavDzlJx5b2kmn91zDMKFP6qqiSvfod4OOKKKK/Sz5gKKKKACiiigAooooAKKKKACiiigAooooAKKKKACiiigAooooAKKKKACiiigAooooA6LSfuvW1WNpH3XrZr6nA/wUebX+NhXjPxb/wCPFf8Adr2avGfi3/x4r/u189xx/wAiWt6HoZH/AL7A0vhV/wAi9bf7leqV5X8Kv+Retv8Acr1SunhL/kUYf/CvyM82/wB7n6hRRRX0Z5p//9b9/K+SD/yUW4/6+BX1vXyQf+Si3H/XwK/MfEnbBf8AXz9D6fhv/l9/hPrSP/Vr9BT6ZH/q1+gp9fpq2PmWRzf6s1xs/wDrDXZTf6s1xs/+sNeRmv2TswnUhooorwzrCiiigAooooAKKKKACiiigAooooAKKKKACiiigAooooAKKKKACiiigAooooAay7xg9K+edbV9H8TC4Awskw/KvoivNvHOgi8t1uYV+ePLV8lxhgKlfCKrR+KDuevk+IjTrck9paHd6deLfWqzr0NOvrpbO2a4bovrXkvgnxKbfGnXrYK+vFeja3byatpj2tq4DSDhu1deX5ysZl7rUdZpbeZliMF7HEck/hv+B8yambrVNcm+z7mLSfLjtXZR/D7UZLEXskj+eQcqevFep6F4NsNO2zzRq03Ut712uBjFfJZVwEqinWzB+9LWy6X/AFPXxWfuPLDDrRHx/G19oWpq9wpWRTgA+ma+rNFuRdaZbzZ5ZATWJr/hDT9ZUymNRP0DGrmgWc2mQNBcP8qABc+gr0OGsjxWUYypSm+alLZ/5nNmeOpYyjGS0kjZvp0t7aSR2xhSR+FfP8CvrXivzANy+v0Ndh438TqFFhZks5O0leetWPAWgPbxC+uB85J+tY5xW/tXM6eBo6xg7yZeDh9Uw0q895aI9NtU8u3jj/uqBU1A4GKK/Q4x5YpI+dbu7hRRUE91BbjdNIqAdSxxRKSiryegJNuyPIfiTPdrd2MFtK0XmNg7T9aoweDtVkszdf2hLwpPX0FO8fX9pcanprQyq4V/mIPTrXoVpq+mjRnjNxHu8tuN3tX5gsHhMbmuKeInorW963ReZ9R7arRwtL2a1e+nmeM6LpWq6rdGD7bKuGK9fQ4qfXdE1bRpoYft0reb71ueDL+0h1FmllVR5jHJOO5q/wCO9Qs7i9tDDMjY64b614tPLsK8pliXN+0uvtPa/qd0sTV+tqnb3bdjKt/CWqz6f9u+3yjClsZ9Km8BzXi6wLe4meQDP3j6V3en6tp6+HzGZ4w3lnjd7V554QvbWHXzJLIqr83JOK9N4PC4TGYOdCe9r+9f9TkVarWo1ozW22h71RVa3vLW6GYJFcDrtOa4zxQmukp/Zcxj55wK/Scbj1Qoe3hFzXkfN0MO6k+Ru3qYfjHw7eajeGe3VjyCMe1Zcdj4kjRUAlwoAHPpTfK8a/8AP235UeV41/5+2/KvzXEeyqV5YiNGrFy3tb/M+lpqcaapucWkZGr32u6SYxOZB5nTJrQsP+EhvbZbmPzSre9cx4nTxArQf2nOZD/BkdOtbWjR+LDYx/Y7llj7DFeNRrzeOnSaqcqW2l/mdk6aVCMly3/At3+ia/qMBt5lkKk8g16b4U02XTbIRSAg4xzXnfleNf8An7b8qPK8a/8AP235V9BluIpYTEfWVRqSla2tv8zz8RTlWp+yc4pHt1FZGhC7GmRC+ffNj5ie9a9fptCr7SnGpa11ex8zOPLJx7BRRRWpAUUUUAFFFFABRRRQAUUUUAFFFFABRRRQAUUUUAFFFFABRRRQAUUUUAFFFFAHRaT91vwrarG0j7rVs19Tgv4KPNr/ABsK8Z+Lf/Hiv+7Xs1eM/Fv/AI8V/wB2vnuOP+RLW9D0Mj/32BpfCr/kXrb/AHK9Uryv4Vf8i9bf7leqV08Jf8ijD/4V+Rnm3+9z9Qooor6M80//1/38r5IP/JRbj/r4FfW9fJB/5KLcf9fAr8x8SdsF/wBfP0Pp+G/+X3+E+tI/9Wv0FPpkf+rX6Cn1+mrY+ZZHN/qzXGz/AOsNdlN/qzXGz/6w15Ga/ZOzCdSGiiivDOsKKKKACiiigAooooAKKKKACiiigAooooAKKKKACiiigAooooAKKKKACiiigAqOWJZo2jcZBGDUlFJpNWY07O6PGPFPg+a3uG1HTRg5/lVPRPG82nMLXUs4HHTsK9weNJV2uAQexrj9V8GWGo5bAjJ7gV8Nj+G8Th67xeUy5W949Ge5QzKnUgqWLV13NCw8T6ZeoDG/J9TW0Ly3K7xIuPqK8Tu/h/fwO32OaXGeME1m/wDCJeJg2wSTbf8AeNYx4kzaiuSvhW35f0y/7Nwk9adW3qez3fiXTbMEyv09DmvMda8evdlrPTM/P8vSq1p4A1Gdh9rmlA9yTXoOkeCdP07bIcSMOfmFROrn2ZrkUfZQ69y4wwGG95vnZwvhrwnc304v9RGSSDzXtNvbx28YjQYAqSOKOMYjUKPQU+vqcmyOhl1PlhrJ7vueVjcdPESvLbsFFFFe0cIVzfiDRBrFu0JJGRjg4rpKK58VhaeIpOlVV0zSlVlTkpx3PGj8Mom+9vOPVqcPhog4Bf8A76/+vXsdFfO/6mZX/wA+z0v7axX8x40PhlEvK7x/wL/69L/wrKNuWLn/AIF/9evZKKX+peVf8+w/trFfzHjY+GiAYBfHpuoHwyiU5G8fjj+teyUUf6mZX/z7D+2sV/Mch4X8ODQonQFjvOeTmuu2g9s0tFfQ4PB0sLRVCirRR51avOrNzm9RNif3RRsT+6KWiuqyM7nn/jTw7e609sbJVxEfmz+NdJ4e0+TT9LitbhRvXrW5RXl0spoU8ZPGxvzS0fb+tDpnjKkqKovZCbE/uijYn90UtFepZHNcBxxRRRQIKKKKACiiigAooooAKKKKACiiigAooooAKKKKACiiigAooooAKKKKACiiigAooooA6LSfuvW1WNpH3WrZr6rBfwUebX+NhXjPxb/48V/3a9mrxn4t/wDHiv8Au187xx/yJa3oehkf++wNL4Vf8i9bf7leqV5X8Kv+Retv9yvVK6eEv+RRh/8ACvyM82/3ufqFFFFfRnmn/9D9/K+SD/yUW4/6+BX1vXyQf+Si3H/XwK/MfEnbBf8AXz9D6fhv/l9/hPrSP/Vr9BT6ZH/q1+gp9fpq2PmWRzf6s1xs/wDrDXZTf6s1xs/+sNePmv2TswnUhooorxDrCiiigAooooAKKKKACiiigAooooAKKKKACiiigAooooAKKKKACiiigAooooAKKKKACiiigAooooAKKKKACiiigAooooAKKKKACiiigAooooAKKKKACiiigAooooAKKKKACiiigAooooAKKKKACiiigAooooAKKKKACiiigAooooAKKKKACiiigAooooAKKKKACiiigAooooA6LSfuvW1WLpP3Xrar6rBfwUebX+NhXjPxb/48V/3a9mrxn4t/8eK/7tfO8cf8iWt6HoZH/vsDS+FX/IvW3+5XqleV/Cr/AJF62/3K9Urp4S/5FGH/AMK/Izzb/e5+oUUUV9Geaf/R/fyvkg/8lFuP+vgV9b18kH/kotx/18CvzHxJ2wX/AF8/Q+n4b/5ff4T60j/1a/QU+mR/6tfoKfX6atj5lkc3+rNcbP8A6w12U3+rNcbP/rDXj5r9k7MJ1IaKKK8Q6wooooAKKKKACiiigAooooAKKKKACiiigAooooAKKKKACiiigAooooAKKKKACiiigAooooAKKKKACiiigAooooAKKKKACiiigAooooAKKKKACiiigAooooAKKKKACiiigAooooAKKKKACiiigAooooAKKKKACiiigAooooAKKKKACiiigAooooAKKKKACiiigAooooAKKKKAOi0n7r1tVi6T9162q+qwX8FHm1/jYV4z8W/+PFf92vZq8Z+Lf/Hiv+7XzvHH/Ilreh6GR/77A0vhV/yL1t/uV6pXlfwq/wCRetv9yvVK6eEv+RRh/wDCvyM82/3ufqFFFFfRnmn/0v38r5IP/JRbj/r4FfW9fJB/5KLcf9fAr8x8SdsF/wBfP0Pp+G/+X3+E+tI/9Wv0FPpkf+rX6Cn1+mrY+ZZHN/qzXGz/AOsNdlN/qzXGz/6w14+a/ZOzCdSGiiivEOsKKKKACiiigAooooAKKKKACiiigAooooAKKKKACiiigAooooAKKKKACiiigAooooAKKKKACiiigAooooAKKKKACiiigAooooAKKKKACiiigAooooAKKKKACiiigAooooAKKKKACiiigAooooAKKKKACiiigAooooAKKKKACiiigAooooAKKKKACiiigAooooAKKKKACiiigDotJ+69bVYuk/datqvqsF/BR5tf42FeM/Fv/jxX/dr2avGfi3/x4r/u187xx/yJa3oehkf++wNL4Vf8i9bf7leqV5X8Kv8AkXrb/cr1SunhL/kUYf8Awr8jPNv97n6hRRRX0Z5p/9P9/K+SD/yUW4/6+BX1vXyQf+Si3H/XwK/MfEnbBf8AXz9D6fhv/l9/hPrSP/Vr9BT6ZH/q1+gp9fpq2PmWRzf6s1xs/wDrDXZTf6s1xs/+sNePmv2TswnUhooorxDrCiiigAooooAKKKKACiiigAooooAKKKKACiiigAooooAKKKKACiiigAooooAKKKKACiiigAooooAKKKKACiiigAooooAKKKKACiiigAooooAKKKKACiiigAooooAKKKKACiiigAooooAKKKKACiiigAooooAKKKKACiiigAooooAKKKKACiiigAooooAKKKKACiiigAooooA6LSfuvW1WLpP3Xrar6rBfwUebX+NhXjPxb/48V/3a9mrxn4t/8eK/7tfO8cf8iWt6HoZH/vsDS+FX/IvW3+5XqleV/Cr/AJF62/3K9Urp4S/5FGH/AMK/Izzb/e5+oUUUV9Geaf/U/fyvkg/8lFuP+vgV9b18kH/kotx/18CvzHxJ2wX/AF8/Q+n4b/5ff4T60j/1a/QU+mR/6tfoKfX6atj5lkc3+rNcbP8A6w12U3+rNcbP/rDXj5r9k7MJ1IaKKK8Q6wooooAKKKKACiiigAooooAKKKKACiiigAooooAKKKKACiiigAooooAKKKKACiiigAooooAKKKKACiiigAooooAKKKKACiiigAooooAKKKKACiiigAooooAKKKKACiiigAooooAKKKKACiiigAooooAKKKKACiiigAooooAKKKKACiiigAooooAKKKKACiiigAooooAKKKKAOi0n7rVtVi6T9162q+qwX8FHm1/jYV4z8W/+PFf92vZq8Z+Lf/Hiv+7XzvHH/Ilreh6GR/77A0vhV/yL1t/uV6pXlfwq/wCRetv9yvVK6eEv+RRh/wDCvyM82/3ufqFFFFfRnmn/1f38r5IP/JRbj/r4FfW9fJB/5KLcf9fAr8x8SdsF/wBfP0Pp+G/+X3+E+tI/9Wv0FPpkf+rX6Cn1+mrY+ZZHN/qzXGz/AOsNdlN/qzXGz/6w14+a/ZOzCdSGiiivEOsKKKKACiiigAooooAKKKKACiiigAooooAKKKKACiiigAooooAKKKKACiiigAooooAKKKKACiiigAooooAKKKKACiiigAooooAKKKKACiiigAooooAKKKKACiiigAooooAKKKKACiiigAooooAKKKKACiiigAooooAKKKKACiiigAooooAKKKKACiiigAooooAKKKKACiiigDotJ+69bVYuk/detqvqsF/BR5tf42FeM/Fv/jxX/dr2avGfi3/x4r/u187xx/yJa3oehkf++wNL4Vf8i9bf7leqV5X8Kv8AkXrb/cr1SunhL/kUYf8Awr8jPNv97n6hRRRX0Z5p/9b9/K+SD/yUW4/6+BX1vXyQf+Si3H/XwK/MfEnbBf8AXz9D6fhv/l9/hPrSP/Vr9BT6ZH/q1+gp9fpq2PmWRzf6s1xs/wDrDXZTf6s1xs/+sNePmv2TswnUhooorxDrCiiigAooooAKKKKACiiigAooooAKKKKACiiigAooooAKKKKACiiigAooooAKKKKACiiigAooooAKKKKACiiigAooooAKKKKACiiigAooooAKKKKACiiigAooooAKKKKACiiigAooooAKKKKACiiigAooooAKKKKACiiigAooooAKKKKACiiigAooooAKKKKACiiigAooooA6LSfuvW1WLpP3Xrar6rBfwUebX+NhXjPxb/48V/3a9mrxn4t/8eK/7tfO8cf8iWt6HoZH/vsDS+FX/IvW3+5XqleV/Cr/AJF62/3K9Urp4S/5FGH/AMK/Izzb/e5+oUUUV9Geaf/X/fyvkg/8lFuP+vgV9b18kH/kotx/18CvzHxJ2wX/AF8/Q+n4b/5ff4T60j/1a/QU+mR/6tfoKfX6atj5lkc3+rNcbP8A6w12U3+rNcbP/rDXj5r9k7MJ1IaKKK8Q6wooooAKKKKACiiigAooooAKKKKACiiigAooooAKKKKACiiigAooooAKKKKACiiigAooooAKKKKACiiigAooooAKKKKACiiigAooooAKKKKACiiigAooooAKKKKACiiigAooooAKKKKACiiigAooooAKKKKACiiigAooooAKKKKACiiigAooooAKKKKACiiigAooooAKKKKAOj0kfKxrZrG0n7rVs19Vgv4MTza/xsK8Z+Lf/Hiv+7Xs1eM/Fv8A48V/3a+d44/5Etb0PQyP/fYGl8Kv+Retv9yvVK8r+FX/ACL1t/uV6pXTwl/yKMP/AIV+Rnm3+9z9Qooor6M80//Q/fyvkg/8lFuP+vgV9b18kH/kotx/18CvzHxJ2wX/AF8/Q+n4b/5ff4T60j/1a/QU+mR/6tfoKfX6atj5lkc3+rNcbP8A6w12U3+rNcbP/rDXj5r9k7MJ1IaKKK8Q6wooooAKKKKACiiigAooooAKKKKACiiigAooooAKKKKACiiigAooooAKKKKACiiigAooooAKKKKACiiigAooooAKKKKACiiigAooooAKKKKACiiigAooooAKKKKACiiigAooooAKKKKACiiigAooooAKKKKACiiigAooooAKKKKACiiigAooooAKKKKACiiigAooooAKKKKAOk0n7p+lbFY2lfdP0rZr6rBfwYnm1/jYV4z8W/8AjxX/AHa9mrxn4t/8eK/7tfO8cf8AIlreh6GR/wC+wNL4Vf8AIvW3+5XqleV/Cr/kXrb/AHK9Urp4S/5FGH/wr8jPNv8Ae5+oUUUV9Geaf//R/fyvkg/8lFuP+vgV9b18kH/kotx/18CvzHxJ2wX/AF8/Q+n4b/5ff4T60j/1a/QU+mR/6tfoKfX6atj5lkc3+rNcbP8A6w12U3+rNcbP/rDXj5r9k7MJ1IaKKK8Q6wooooAKKKKACiiigAooooAKKKKACiiigAooooAKKKKACiiigAooooAKKKKACiiigAooooAKKKKACiiigAooooAKKKKACiiigAooooAKKKKACiiigAooooAKKKKACiiigAooooAKKKKACiiigAooooAKKKKACiiigAooooAKKKKACiiigAooooAKKKKACiiigAooooAKKKKAOi0j7jCtqsXSfuvW1X1WC/go82v8bCvGfi3/AMeK/wC7Xs1eM/Fv/jxX/dr53jj/AJEtb0PQyP8A32BpfCr/AJF62/3K9Uryv4Vf8i9bf7leqV08Jf8AIow/+FfkZ5t/vc/UKKKK+jPNP//S/fyvkg/8lFuP+vgV9b18kH/kotx/18CvzHxJ2wX/AF8/Q+n4b/5ff4T60j/1a/QU+mR/6tfoKfX6atj5lkc3+rNcbP8A6w12U3+rNcbP/rDXj5r9k7MJ1IaKKK8Q6wooooAKKKKACiiigAooooAKKKKACiiigAooooAKKKKACiiigAooooAKKKKACiiigAooooAKKKKACiiigAooooAKKKKACiiigAooooAKKKKACiiigAooooAKKKKACiiigAooooAKKKKACiiigAooooAKKKKACiiigAooooAKKKKACiiigAooooAKKKKACiiigAooooAKKKKAOi0n7r1tVi6T9162q+qwX8FHm1/jYV4z8W/+PFf92vZq8Z+Lf/Hiv+7XzvHH/Ilreh6GR/77A0vhV/yL1t/uV6pXlfwq/wCRetv9yvVK6eEv+RRh/wDCvyM82/3ufqFFFFfRnmn/0/38r5IP/JRbj/r4FfW9fJB/5KLcf9fAr8x8SdsF/wBfP0Pp+G/+X3+E+tI/9Wv0FPpkf+rX6Cn1+mrY+ZZHN/qzXGz/AOsNdlN/qzXGz/6w14+a/ZOzCdSGiiivEOsKKKKACiiigAooooAKKKKACiiigAooooAKKKKACiiigAooooAKKKKACiiigAooooAKKKKACiiigAooooAKKKKACiiigAooooAKKKKACiiigAooooAKKKKACiiigAooooAKKKKACiiigAooooAKKKKACiiigAooooAKKKKACiiigAooooAKKKKACiiigAooooAKKKKACiiigDotJ+69bVY2kfdatmvqcF/BR5tf42FeM/Fv/jxX/dr2avGfi3/x4r/u189xx/yJa3oehkf++wNL4Vf8i9bf7leqV5X8Kv8AkXrb/cr1SunhL/kUYf8Awr8jPNv97n6hRRRX0Z5p/9T9/K+SD/yUW4/6+BX1vXyQf+Si3H/XwK/MfEnbBf8AXz9D6fhv/l9/hPrSP/Vr9BT6ZH/q1+gp9fpq2PmWRzf6s1xs/wDrDXZTf6s1xs/+sNePmv2TswnUhooorxDrCiiigAooooAKKKKACiiigAooooAKKKKACiiigAooooAKKKKACiiigAooooAKKKKACiiigAooooAKKKKACiiigAooooAKKKKACiiigAooooAKKKKACiiigAooooAKKKKACiiigAooooAKKKKACiiigAooooAKKKKACiiigAooooAKKKKACiiigAooooAKKKKACiiigAooooA6LSfuv9K2qxdJ+6/0rar6nA/wInm1/jYV4z8W/wDjxX/dr2avGfi3/wAeK/7tfPccf8iWt6HoZH/vsDS+FX/IvW3+5XqleV/Cr/kXrb/cr1SunhL/AJFGH/wr8jPNv97n6hRRRX0Z5p//1f38r5IP/JRbj/r4FfW9fJB/5KLcf9fAr8x8SdsF/wBfP0Pp+G/+X3+E+tI/9Wv0FPpkf+rX6Cn1+mrY+ZZHN/qzXGz/AOsNdlN/qzXGz/6w14+a/ZOzCdSGiiivEOsKKKKACiiigAooooAKKKKACiiigAooooAKKKKACiiigAooooAKKKKACiiigAooooAKKKKACiiigAooooAKKKKACiiigAooooAKKKKACiiigAooooAKKKKACiiigAooooAKKKKACiiigAooooAKKKKACiiigAooooAKKKKACiiigAooooAKKKKACiiigAooooAKKKKACiiigDotJ+6/0rarF0n7r/StqvqcD/BR5tf42FeM/Fv/AI8V/wB2vZq8Z+Lf/Hiv+7Xz3HH/ACJa3oehkf8AvsDS+FX/ACL1t/uV6pXlfwq/5F62/wByvVK6eEv+RRh/8K/Izzb/AHufqFFFFfRnmn//1v38r5IP/JRbj/r4FfW9fJB/5KLcf9fAr8x8SdsF/wBfP0Pp+G/+X3+E+tI/9Wv0FPpkf+rX6Cn1+mrY+ZZHN/qzXGz/AOsNdlN/qzXGz/6w14+a/ZOzCdSGiiivEOsKKKKACiiigAooooAKKKKACiiigAooooAKKKKACiiigAooooAKKKKACiiigAooooAKKKKACiiigAooooAKKKKACiiigAooooAKKKKACiiigAooooAKKKKACiiigAooooAKKKKACiiigAooooAKKKKACiiigAooooAKKKKACiiigAooooAKKKKACiiigAooooAKKKKACiiigDotJ+6/0rarF0n7r/StqvqcD/BR5tf42FeM/Fv/AI8V/wB2vZq8Z+Lf/Hiv+7Xz3HH/ACJa3oehkf8AvsDS+FX/ACL1t/uV6pXlfwq/5F62/wByvVK6eEv+RRh/8K/Izzb/AHufqFFFFfRnmn//1/38r5IP/JRbj/r4FfW9fJB/5KLcf9fAr8x8SdsF/wBfP0Pp+G/+X3+E+tI/9Wv0FPpkf+rX6Cn1+mrY+ZZHN/qzXGz/AOsNdlN/qzXGz/6w14+a/ZOzCdSGiiivEOsKKKKACiiigAooooAKKKKACiiigAooooAKKKKACiiigAooooAKKKKACiiigAooooAKKKKACiiigAooooAKKKKACiiigAooooAKKKKACiiigAooooAKKKKACiiigAooooAKKKKACiiigAooooAKKKKACiiigAooooAKKKKACiiigAooooAKKKKACiiigAooooAKKKKACiiigDotJ+6/0rarF0n7r/StqvqcD/BR5tf42FeM/Fv/AI8V/wB2vZq8Z+Lf/Hiv+7Xz3HH/ACJa3oehkf8AvsDS+FX/ACL1t/uV6pXlfwq/5F62/wByvVK6eEv+RRh/8K/Izzb/AHufqFFFFfRnmn//0P38r5IP/JRbj/r4FfW9fJB/5KLcf9fAr8x8SdsF/wBfP0Pp+G/+X3+E+tI/9Wv0FPpkf+rX6Cn1+mrY+ZZHLzGfpXHTjEpBrtCMgiuY1C3KyFh615eaU24qS6HVhZJOxl0UUV4B2hRRRQAUUUUAFFFFABRRRQAUUUUAFFFFABRRRQAUUUUAFFFFABRRRQAUUUUAFFFFABRRRQAUUUUAFFFFABRRRQAUUUUAFFFFABRRRQAUUUUAFFFFABRRRQAUUUUAFFFFABRRRQAUUUUAFFFFABRRRQAUUUUAFFFFABRRRQAUUUUAFFFFABRRRQAUUUUAFFFFABRRRQAUUU+NDIcCmk27IDoNJXCtnvWzVKyh8qIA9xV2vq8LBxpJM8urK8mwrxn4t/8AHiv+7Xs1eM/Fv/jxX/dr5vjj/kS1vQ9LI/8AfYGl8Kv+Retv9yvVK8r+FX/IvW3+5XqldPCX/Iow/wDhX5Gebf73P1CiiivozzT/0f38r5IP/JRbj/r4FfW9fJB/5KLcf9fAr8x8SdsF/wBfP0Pp+G/+X3+E+tI/9Wv0FPpkf+rX6Cn1+mrY+ZYVXmgWVcEZqxRSlFSVmCbTujl59OkQ5XpVL7PIOMH8q7TA9KTYv90flXmzyum3dOx0xxTW5xv2d/Q/lR9nf0P5V2WxP7o/KjYn90flUf2TH+Yr62+xxv2d/Q/lR9nf0P5V2WxP7o/KjYn90flR/ZMf5g+tvscb9nf0P5UfZ39D+VdlsT+6Pyo2J/dH5Uf2TH+YPrb7HG/Z39D+VH2d/Q/lXZbE/uj8qNif3R+VH9kx/mD62+xxv2d/Q/lR9nf0P5V2WxP7o/KjYn90flR/ZMf5g+tvscb9nf0P5UfZ39D+VdlsT+6Pyo2J/dH5Uf2TH+YPrb7HG/Z39D+VH2d/Q/lXZbE/uj8qNif3R+VH9kx/mD62+xxv2d/Q/lR9nf0P5V2WxP7o/KjYn90flR/ZMf5g+tvscb9nf0P5UfZ39D+VdlsT+6Pyo2J/dH5Uf2TH+YPrb7HG/Z39D+VH2d/Q/lXZbE/uj8qNif3R+VH9kx/mD62+xxv2d/Q/lR9nf0P5V2WxP7o/KjYn90flR/ZMf5g+tvscb9nf0P5UfZ39D+VdlsT+6Pyo2J/dH5Uf2TH+YPrb7HG/Z39D+VH2d/Q/lXZbE/uj8qNif3R+VH9kx/mD62+xxv2d/Q/lR9nf0P5V2WxP7o/KjYn90flR/ZMf5g+tvscb9nf0P5UfZ39D+VdlsT+6Pyo2J/dH5Uf2TH+YPrb7HG/Z39D+VH2d/Q/lXZbE/uj8qNif3R+VH9kx/mD62+xxv2d/Q/lR9nf0P5V2WxP7o/KjYn90flR/ZMf5g+tvscb9nf0P5U37PJ6H/P4V2mxP7o/KjYn90flR/ZMf5g+tvscZ9ml9D+VL9nf0P5V2WxP7o/KjYn90flR/ZMf5g+tvscb9ml9D+VH2aX0P5V2WxP7o/KjYn90flR/ZMf5g+tPscb9ml9D+VH2aX0P5V2WxP7o/KjYn90flR/ZMf5g+tPscb9ml9D+VH2aX0P5V2WxP7o/KjYn90flR/ZMf5g+tPscb9ml9D+VH2aX0P5V2WxP7o/KjYn90flR/ZMf5g+tPscb9ml9D+VH2aX0P5V2WxP7o/KjYn90flR/ZMf5g+tPscb9ml9D+VH2aX0P5V2WxP7o/KjYn90flR/ZMf5g+tPscb9ml9D+VH2aX0P5V2WxP7o/KjYn90flR/ZMf5g+tPscb9ml9D+VH2aX0P5V2WxP7o/KjYn90flR/ZMf5g+tPscb9ml9D+VH2aX0P5V2WxP7o/KjYn90flR/ZMf5g+tPsccLWX0o+yy+ldjtX0H5Uu1fQflR/ZMf5g+tPscZ9ml9D+VH2aX0P5V2e1fQflRtX0H5Uf2THuH1p9jjPs0vofyo+zS+h/Kuy2L/dFGxP7o/Kj+yY/wAwfWn2ON+zS+h/Kj7NL6H8q7LYn90flRsT+6Pyo/smP8wfWn2ON+zS+h/Kj7O/ofyrstif3R+VGxP7o/Kj+yY/zB9bfY437O/ofyo+zv6H8q7LYn90flRsT+6Pyo/smP8AMH1t9jjfs7+h/Kj7O/ofyrstif3R+VGxP7o/Kj+yY/zB9bfY437O/ofyo+zv6H8q7LYn90flRsT+6Pyo/smP8wfW32ON+zv6H8qT7PL6H8v/AK1dnsT+6Pyo2J/dH5Uf2TH+YPrb7HIJZSucYrctLARct1rU2r6ClrooZfTpu+5nPEOSsIBgYpaKK7znCvGfi3/x4r/u17NXjPxb/wCPFf8Adr5Pjj/kS1vQ9bI/99gaXwq/5F62/wByvVK8r+FX/IvW3+5XqldPCX/Iow/+FfkZ5t/vc/UKKKK+jPNP/9L9/K+SD/yUW4/6+BX1vXyQf+Si3H/XwK/MfEnbBf8AXz9D6fhv/l9/hPrSP/Vr9BT6ZH/q1+gp9fpq2PmWFFFFMQUUUUAFFFFABRRRQAUUUUAFFFFABRRRQAUUUUAFFFFABRRRQAUUUUAFFFFABRRRQAUUUUAFFFFABRRRQAUUUUAFFFFABRRRQAUUUUAFFFFABRRRQAUUUUAFFFFABRRRQAUUUUAFFFFABRRRQAUUUUAFFFFABRRRQAUUUUAFFFFABRRRQAUUUUAFFFFABRRRQAUUUUAFFFFABRRRQAUUUUAFeM/Fv/jxX/dr2avGfi3/AMeK/wC7XyfHH/Ilreh62R/77A0vhV/yL1t/uV6pXlfwq/5F62/3K9Urp4S/5FGH/wAK/Izzb/e5+oUUUV9Geaf/0/38r5IP/JRbj/r4FfW9fJB/5KLcf9fAr8x8SdsF/wBfP0Pp+G/+X3+E+tI/9Wv0FPpkf+rX6Cn1+mrY+ZYUUUUxBRRRQAUUUUAFFFFABRRRQAUUUUAFFFFABRRRQAUUUUAFFFFABRRRQAUUUUAFFFFABRRRQAUUUUAFFFFABRRRQAUUUUAFFFFABRRRQAUUUUAFFFFABRRRQAUUUUAFFFFABRRRQAUUUUAFFFFABRRRQAUUUUAFFFFABRRRQAUUUUAFFFFABRRRQAUUUUAFFFFABRRRQAUUUUAFFFFABRRRQAV4z8W/+PFf92vZq8Z+Lf8Ax4r/ALtfJ8cf8iWt6HrZH/vsDS+FX/IvW3+5XqleV/Cr/kXrb/cr1SunhL/kUYf/AAr8jPNv97n6hRRRX0Z5p//U/fyvkg/8lFuP+vgV9b18kH/kotx/18CvzHxJ2wX/AF8/Q+n4b/5ff4T60j/1a/QU+mR/6tfoKfX6atj5lhRRRTEFFFFABRRRQAUUUUAFFFFABRRRQAUUUUAFFFFABRRRQAUUUUAFFFFABRRRQAUUUUAFFFcN8QfHmi/Dvw3e+Jdbfbb2ULTMMgEheuPegDuaK+VPgD+1j4D/AGgPk8KQ3Kn5vmlUhflznnaB2r6roAKKKKACiiigAooooAKKKKACiiigAooooAKKKKACiiigAooooAKKKKACiiuH1b4ieFNEvn0/UdRtYJ4/vJJOiMPwJBoA7iivNf8AhbXgX/oLWX/gTH/8VR/wtrwL/wBBay/8CY//AIqgD0qivNf+FteBf+gtZf8AgTH/APFVtaL458Na/cC10u+t7iQ8hYpkc/kpJoA7CiiigAooooAKKKKACiiigAooooAKKKKACiiigAooooAKKKjkkSFDJIQFHUk4oAkorz+9+Jvg7T7l7S61O0jkTgq1xGpH4Fqq/wDC2vAv/QWsv/AmP/4qgD0qivNf+FteBf8AoLWX/gTH/wDFUf8AC2vAv/QWsv8AwJj/APiqAPSqK4PT/iR4Q1ScW9nqVrK57JPGx/IGu5Rw6h1OQwyMUAPooooAK8Z+Lf8Ax4r/ALtezV4z8W/+PFf92vk+OP8AkS1vQ9bI/wDfYGl8Kv8AkXrb/cr1SvK/hV/yL1t/uV6pXTwl/wAijD/4V+Rnm3+9z9Qooor6M80//9X9/K+SD/yUW4/6+BX1vXyQf+Si3H/XwK/MfEnbBf8AXz9D6fhv/l9/hPrSP/Vr9BT6ZH/q1+gp9fpq2PmWFFFFMQUUUUAFFFFABRRRQAUUUUAFFFFABRRRQAUUUUAFFFFABRRRQAUUUUAFFFFABRRRQAV+KP8AwVJ/aBTRNC0/wf4Zud91cs9vdRg7cA59M19v/tfftH23wP8AB90kCCbUpYfMgiU4duD05FfmJ+zF+zt4s/aa8d3PxQ+JwmXS5ZFu7a2vFDRsBjKqQD6+tAHhv7I/7VWofAbwZb6dFaWxuULEtIBuww9SM19iv/wU/wDEaLua1ssD/d/+Jr9QIf2Z/gZFEkf/AAh+nfKoGdrdv+BVzfjL9nH4I2+gXEkPhHT0YdCEb3/2qAPzPtv+Cq+qXcz28EFmzxnDD5ev/fNa/wDw888R/wDPrZ/kv/xNfNv7JHw38D67+0b4/wBI1fSLe5s7XVBHDDICVRdsfA596/dT/hmv4Gf9Cfp//fDf/FUAfmlon/BS3xFqeoRWj2tnhyBxt7n/AHa/XfwXrj+JvCuma9KAGvrdZiB0yc151B+zl8EraQSweEdPR16EK2f/AEKvYrGytNNtIrCxjWGCBQkca9FUdhQBbooooAKKKKACiiigAooooAKKKKACiiigAooooAKKKKAGv901/Ml+1Vofiv4h/tweKfB9jreo2dspi2x29xIijdJKOArDHSv6bX+6a/m6+MXijRPCn/BQzxVqOu3cdnbhoPnlOBxLN6ZoA9rsv+Cavim6s4Ln/hKPEH72JJP+Pqf+IA/36s/8OzvFH/Q0+If/AALm/wDjlfpdpH7WfwDi0qyjfxnpYZLeJSC7ZBCDP8NaH/DW/wAAf+h00v8A7+N/8TQB+VOv/wDBODxTo+iX2qDxR4gzawPLzdTY+UZ/56V51/wT3j8TeH/2nI/DWp6vfXsMUUg2XM7yD5WI6Mxr9cfG/wC1d8B7zwhrFrb+MdMeWWzlVFDtksVOB92vyd/Yc1jT9c/a9N9pk6XELRzYdOhy5oA/ohooooAKKKKACiiigAooooAKKKKACiiigAooooAKKKKACuM+IMjxeENSeNirCLII4Irs64r4if8AIm6n/wBcqAP5p4Php4w+PH7TPizwvFr+q28NptdUt7mRQMluysPSvrGP/gmj4tdFb/hKPEHIB/4+p+//AAOsD9kX/k83x3/1zX/2ev33h/1Mf+6P5UAfhT/w7Q8W/wDQ0eIP/Auf/wCLpD/wTQ8XAZ/4SjxB/wCBc/8A8XX7t0h6UAfy8eFPB/i74J/tXP8ADm413U7mG3SJttxcSN1YjozH0r+mvwyzP4d01nJLG1iJJ5z8or+f747/APKQzUP+uEP/AKMav6APC3/It6Z/16w/+gigDeooooAK8Z+Lf/Hiv+7Xs1eM/Fv/AI8V/wB2vk+OP+RLW9D1sj/32BpfCr/kXrb/AHK9Uryv4Vf8i9bf7leqV08Jf8ijD/4V+Rnm3+9z9Qooor6M80//1v38r5IP/JRbj/r4FfW9fJB/5KLcf9fAr8x8SdsF/wBfP0Pp+G/+X3+E+tI/9Wv0FPpkf+rX6Cn1+mrY+ZYUUUUxBRRRQAUUUUAFFFFABRRRQAUUUUAFFFFABRRRQAUUUUAFFFFABRRRQAUUUUAFFFFAHzl8Zf2a/h98a9VtNT8Y6et5JaJsQkqMD8Qa89+OGsXP7PPwfFt4BY2CadaP5IHO3b0+7tr7Pr4Y/bu/5JRf/wDXpLQB+UfgT9rL9sv4i6b/AGx4f16Z7Z3ZVIhlbp7iSul1z40ftwTabJHe61OYj94fZ5vf/ppX2D/wS60rTLr4E6fJdWkEr+fL80kSseg7kGv0a8baFoi+Hbkrp9qDjqIEHr/s0Afyb/Brxr8ctJ+J3iLUfCF7JDrFxeBrx1jdi0mF5wGBHAFfoJ/wu39uv/oNz/8AgPN/8crM/Y2sLGb9pz4ixTW8TourgBWRSANsXQEcV/QJ/YOhf9A60/78J/8AE0AfkX+zV8U/2stf+KVhp3xE1SW40Z1Pmo0MqgnI7s5H6V+wdsXaBGk5YjmqsOkaVbuJbeyt4nHRkiRT+YArRAA4FABRRRQAUUUUAFFFFABRRRQAUUUUAFFFFABRRRQAUUUUANf7pr+Yn9pn4a6b8UP29/Ffh/VIlliLQ8Nj+KWUd/pX9OczrHEzv0A5r+aL46/Efwx8P/2/vFPiHxFOYrPMJ3KM/dllJ7+9AH25p3/BLD4WXFhbXDaTATLDG5O5OrKD6e9XP+HVXwq/6BMH/fSf4V7Xpf8AwUo/Zdt9NtLeTXJg8cEaMPLXqqgH+Or/APw8u/Za/wCg5N/37X/4ugD5m8Uf8EuvhdpPhzUdSi0qAPbW0kqncnBUZ9K+Wf8Agn14TtPBn7ViaLZIEjiilAA9mIr9G/GH/BR/9mHU/C2q6fa63M01xayxoDGvLMMD+Ovz1/YN8UaT4t/a1Gr6M5kt5IpSrEY6sTQB/RdRRRQAUUUUAFFFFABRRRQAUUUUAFFFFABRRRQAUUUUAFcV8RP+RN1P/rlXa1xXxE/5E3U/+uVAH85/wu+N3h74I/tZ+M9a8Q281xFOqoFhBJBBb0Vq/TyL/gph8I1jRTpGo8AD7rf/ABuvzQ+EPwb8NfGP9rbxpo/iR5UhgVWUx9c5f3FfqnF/wTr+DRjQm5vOVB6n/wCLoA5//h5l8Iv+gRqP/fLf/G6Q/wDBTH4Rkf8AII1H/vlv/jddL/w7q+DX/Pzefmf/AIukP/BOr4M4/wCPm8/M/wDxdAH5I6t8VtF+Mn7bVx400CGWC0nihVUlyGGHb1A9fSv6UvC3/It6Z/16w/8AoIr+bfxF8MNC+En7cNz4Q8PM72cEULKZPvZLsPU+nrX9JHhb/kW9M/69Yf8A0EUAb1FFFABXjPxb/wCPFf8Adr2avGfi3/x4r/u18nxx/wAiWt6HrZH/AL7A0vhV/wAi9bf7leqV5X8Kv+Retv8Acr1SunhL/kUYf/CvyM82/wB7n6hRRRX0Z5p//9f9/K+SD/yUW4/6+BX1vXyQf+Si3H/XwK/MfEnbBf8AXz9D6fhv/l9/hPrSP/Vr9BT6ZH/q1+gp9fpq2PmWFFFFMQUUUUAFFFFABRRRQAUUUUAFFFFABRRRQAUUUUAFFFFABRRRQAUUUUAFFFFABRRRQB8U/tS/tNeL/gRc20Hhvw0ddE0XmE5xg46feFflZ8df23/i38YvCk/huX4fPaCaFot6kHG7/gZr98/FPw88KeM2V/EVkt0UG0Z9PyriP+GePhP/ANAWP9P8KAPwQ/Zc/a1+LP7O/gS38GweAn1BYXZ/NY4J3f8AAxX0Tr//AAUw+Lmo6ZLaTfDYxq/Vtw4/8iV+s3/DPHwn/wCgLH+n+Fct4y/Z9+FcGgXEkWjRhhj09/agD+bD4FftNeL/AIf/ABb8UeMdM8NG/utWvRPLbZ/1TbUG37w/u1+lv/Dz74wf9EzP/fQ/+OV85/sj/D7wprf7R3j/AErUrNZra21UJEh/hXbH7e9fuv8A8M8fCf8A6Asf6f4UAflqn/BT34vsyqfhmeSB94f/AByv03+AXxc1z4teHzq+t6T/AGTLsVvLPqccdTWmP2ePhOOmix/p/hXpnh/wvo3hi3+y6NAII8YwPQfhQB0NFFFABRRRQAUUUUAFFFFABRRRQAUUUUAFFFFABRRRQBzHjS+/s3wtqV9nHkwFs/iK/nG8N/C61/aQ/bU8VWl8Q8S26TbiNwOGmPv6V+2f7XfxY0z4bfCjW4rqQJdX1i4t/mwSwbsO/Q1+c3/BMDwXrGreLbj4xapG/wDxN7Ix+Y64yQrnr/wOgD6xt/8Agnp8ORBEHFvnYuf3ffH0qb/h3p8N/SD/AL9//Wr9D6huLiC0iae5kWKNBlnY4AHuaAPzS8YfsA/DvTvC2q30Qg3wWssi/u+6g+1fAP7BXhy28LftaDS7THlpFKBjjoxFfuz8QPGnhM+CdcUataEmxmwPNXP3TX4h/sT3Ed9+2C91akSQ7JhvXlfvnvQB/QpRRRQAUUUUAFFFFABRRRQAUUUUAFFFFABRRRQAUUUUAFcV8RP+RN1P/rlXa1xXxE/5E3U/+uVAH4c/si/8nm+O/wDrmv8A7PX77w/6mP8A3R/Kv5dvCvx+t/gF+1V4x1640m61YXIVPLtVLMMFuuAa+94/+Crelqir/wAIHrfAA/1L/wDxNAH7LUh6V+N3/D1zSv8AoQtb/wC/L/8AxNNP/BVzSiCP+EC1v/vy/wD8TQB86/Hf/lIZqH/XCH/0Y1f0AeFv+Rb0z/r1h/8AQRX8x1l8Yofjl+2RN46h0640tbiOFfIuQVkGHY8ggHvX9OPhb/kW9M/69Yf/AEEUAb1FFFABXjPxb/48V/3a9mrxn4t/8eK/7tfJ8cf8iWt6HrZH/vsDS+FX/IvW3+5XqleV/Cr/AJF62/3K9Urp4S/5FGH/AMK/Izzb/e5+oUUUV9Geaf/Q/fyvkg/8lFuP+vgV9b18kH/kotx/18CvzHxJ2wX/AF8/Q+n4b/5ff4T60j/1a/QU+mR/6tfoKfX6atj5lhRRRTEFFFFABRRRQAUUUUAFFFFABRRRQAUUUUAFFFFABRRRQAUUUUAFFFFABRRRQAUUUUAFFFFABXO+KLGbUdGmtLcZd+g/OuipOvWgD8f/ANmj9l74l+Afjr408Y67BGlhq2oie3ZSclNsY/8AZTX7A1ClvAjF0QAnqcVNQAUUUUAFFFFABRRRQAUUUUAFFFFABRRRQAUUUUAFFFFABRRRQB8Gftl/s4+Ivj7P4dt9KBa0sWb7SAxXKnf789RX0B+z18JrL4OfDXTfBdrCsZsgRnAzyqjr+Fe50YxQAVwHxP0TVvEPgbVdH0Pi9uYSkPJHzfUV39FAH4O+Jf2TP2wdRvLmztDEdPnBjOZXzsPB7+lfVP7Gf7Guq/BLU4/FHimPbqwLbmDbhhiSeSa/TmigAooooAKKKKACiiigAooooAKKKKACiiigAooooAKKKKACua8XaZc6x4dvdOtQDLPHtUH1rpaKAPxs+GX7CfjOH9oHxL458d2cL6LqAX7MR8zZG7sfrX3+n7LPwuCKDYrnAz+7WvpSigD5u/4Za+Fv/Piv/ftaQ/stfC3H/Hiv/fta+kqKAPxl8Q/sKeO7L9p6f4heE7WFPDZjjEZ+62VYk8DjpX7C6HayWOj2VlN/rIII42+qqAa1aKACiiigArxn4t/8eK/7tezV4z8W/wDjxX/dr5Pjj/kS1vQ9bI/99gaXwq/5F62/3K9Uryv4Vf8AIvW3+5XqldPCX/Iow/8AhX5Gebf73P1CiiivozzT/9H9/K+SD/yUW4/6+BX1vXyQf+Si3H/XwK/MfEnbBf8AXz9D6fhv/l9/hPrSP/Vr9BT6ZH/q1+gp9fpq2PmWFFFFMQUUUUAFFFFABRRRQAUUUUAFFFFABRRRQAUUUUAFFFFABRRRQAUUUUAFFFFABRRRQAUUUUAFFFFABRRRQAUUUUAFFFFABRRRQAUUUUAFFFFABRRRQAUUUUAFFFFABRRRQAUUUUAFFFFABRRRQAUUUUAFFFFABRRRQAUUUUAFFFFABRRRQAUUUUAFFFFABRRRQAUUUUAFFFFABRRRQAUUUUAFeM/Fv/jxX/dr2avGfi3/AMeK/wC7XyfHH/Ilreh62R/77A0vhV/yL1t/uV6pXlfwq/5F62/3K9Urp4S/5FGH/wAK/Izzb/e5+oUUUV9Geaf/0v38r5IPHxFuP+vgV9b18meKbaXRfGa6jICqS3AOfYV+ZeJcXGjha1vdjO7PpuGmuerDq4n1hH/q1+gp9ZWkalBqlklzAwKkAcfStWv0ihVhUpqpTd0z5ucXGTjLcKKKK1JCiiigAooooAKKKKACiiigAooooAKKKKACiiigAooooAKKKKACiiigAooooAKKKKACiiigAooooAKKKKACiiigAooooAKKKKACiiigAooooAKKKKACiiigAooooAKKKKACiiigAooooAKKKKACiiigAooooAKKKKACiiigAooooAKKKKACiiigAooooAKKKKACiiigAooooAKKKKACiiigArxn4ucWK/7lezV85/FrWI7u5t9OtGEjOCpC9Qea+L4/xMKWTVVJ6ysl5ntZBTlPGxa6HcfCr/kXbY/7NeqVwfw709rLwzapICH24IP4V3lerwvRlSyqhCe/KvyOTNJqWKm13YUUUV75wH//0/38rzjx74RTxBZeZGo8yEFgT616PSEAjBGRXBmeW0cfhpYXEK8ZHRhcTOhUVWnuj5P8PeLtX8F3H9nagsjW0fQKpxn+VeuWfxX0K5QEoynvuP8A9aur1rwjpWuKVuEC57qoz/SvPrj4M6LuJhmmH0J/xr83o5PxRlH7jL5xqUltzbry1Po54zK8X7+Ii4z62Ol/4WXofv8A99Cj/hZeh+//AH0K5D/hTWm/89Z/++j/AI0f8Ka03/nrP/30f8a6PrvGP/PmH3r/ACI9hk/87+7/AIJ1/wDwsvQ/f/voUf8ACy9D9/8AvoVyH/CmtN/56z/99H/Gj/hTWm/89Z/++j/jR9d4x/58w+9f5B7DJ/5393/BOv8A+Fl6H7/99Cj/AIWXofv/AN9CuQ/4U1pv/PWf/vo/40f8Ka03/nrP/wB9H/Gj67xj/wA+Yfev8g9hk/8AO/u/4J1//Cy9D9/++hR/wsvQ/f8A76Fch/wprTf+es//AH0f8aP+FNab/wA9Z/8Avo/40fXeMf8AnzD71/kHsMn/AJ393/BOv/4WXofv/wB9Cj/hZeh+/wD30K5D/hTWm/8APWf/AL6P+NH/AAprTf8AnrP/AN9H/Gj67xj/AM+Yfev8g9hk/wDO/u/4J1//AAsvQ/f/AL6FH/Cy9D9/++hXIf8ACmtN/wCes/8A30f8aP8AhTWm/wDPWf8A76P+NH13jH/nzD71/kHsMn/nf3f8E6//AIWXofv/AN9Cj/hZeh+//fQrkP8AhTWm/wDPWf8A76P+NH/CmtN/56z/APfR/wAaPrvGP/PmH3r/ACD2GT/zv7v+Cdf/AMLL0P3/AO+hR/wsvQ/f/voVyH/CmtN/56z/APfR/wAaP+FNab/z1n/76P8AjR9d4x/58w+9f5B7DJ/5393/AATr/wDhZeh+/wD30KP+Fl6H7/8AfQrkP+FNab/z1n/76P8AjR/wprTf+es//fR/xo+u8Y/8+Yfev8g9hk/87+7/AIJ1/wDwsvQ/f/voUf8ACy9D9/8AvoVyH/CmtN/56z/99H/Gj/hTWm/89Z/++j/jR9d4x/58w+9f5B7DJ/5393/BOv8A+Fl6H7/99Cj/AIWXofv/AN9CuQ/4U1pv/PWf/vo/40f8Ka03/nrP/wB9H/Gj67xj/wA+Yfev8g9hk/8AO/u/4J1//Cy9D9/++hR/wsvQ/f8A76Fch/wprTf+es//AH0f8aP+FNab/wA9Z/8Avo/40fXeMf8AnzD71/kHsMn/AJ393/BOv/4WXofv/wB9Cj/hZeh+/wD30K5D/hTWm/8APWf/AL6P+NH/AAprTf8AnrP/AN9H/Gj67xj/AM+Yfev8g9hk/wDO/u/4J1//AAsvQ/f/AL6FH/Cy9D9/++hXIf8ACmtN/wCes/8A30f8aP8AhTWm/wDPWf8A76P+NH13jH/nzD71/kHsMn/nf3f8E6//AIWXofv/AN9Cj/hZeh+//fQrkP8AhTWm/wDPWf8A76P+NH/CmtN/56z/APfR/wAaPrvGP/PmH3r/ACD2GT/zv7v+Cdf/AMLL0P3/AO+hR/wsvQ/f/voVyH/CmtN/56z/APfR/wAaP+FNab/z1n/76P8AjR9d4x/58w+9f5B7DJ/5393/AATr/wDhZeh+/wD30KP+Fl6H7/8AfQrkP+FNab/z1n/76P8AjR/wprTf+es//fR/xo+u8Y/8+Yfev8g9hk/87+7/AIJ1/wDwsvQ/f/voUf8ACy9D9/8AvoVyH/CmtN/56z/99H/Gj/hTWm/89Z/++j/jR9d4x/58w+9f5B7DJ/5393/BOv8A+Fl6H7/99Cj/AIWXofv/AN9CuQ/4U1pv/PWf/vo/40f8Ka03/nrP/wB9H/Gj67xj/wA+Yfev8g9hk/8AO/u/4J1//Cy9D9/++hR/wsvQ/f8A76Fch/wprTf+es//AH0f8aP+FNab/wA9Z/8Avo/40fXeMf8AnzD71/kHsMn/AJ393/BOv/4WXofv/wB9Cj/hZeh+/wD30K5D/hTWm/8APWf/AL6P+NH/AAprTf8AnrP/AN9H/Gj67xj/AM+Yfev8g9hk/wDO/u/4J1//AAsvQ/f/AL6FH/Cy9D9/++hXIf8ACmtN/wCes/8A30f8aP8AhTWm/wDPWf8A76P+NH13jH/nzD71/kHsMn/nf3f8E6//AIWXofv/AN9Cj/hZeh+//fQrkP8AhTWm/wDPWf8A76P+NH/CmtN/56z/APfR/wAaPrvGP/PmH3r/ACD2GT/zv7v+Cdf/AMLL0P3/AO+hR/wsvQ/f/voVyH/CmtN/56z/APfR/wAaP+FNab/z1n/76P8AjR9d4x/58w+9f5B7DJ/5393/AATr/wDhZeh+/wD30KP+Fl6H7/8AfQrkP+FNab/z1n/76P8AjR/wprTf+es//fR/xo+u8Y/8+Yfev8g9hk/87+7/AIJ1/wDwsvQ/f/voUf8ACy9D9/8AvoVyH/CmtN/56z/99H/Gj/hTWm/89Z/++j/jR9d4x/58w+9f5B7DJ/5393/BOv8A+Fl6H7/99Cj/AIWXofv/AN9CuQ/4U1pv/PWf/vo/40f8Ka03/nrP/wB9H/Gj67xj/wA+Yfev8g9hk/8AO/u/4J1//Cy9D9/++hR/wsvQ/f8A76Fch/wprTf+es//AH0f8aP+FNab/wA9Z/8Avo/40fXeMf8AnzD71/kHsMn/AJ393/BOv/4WXofv/wB9Cj/hZeh+/wD30K5D/hTWm/8APWf/AL6P+NH/AAprTf8AnrP/AN9H/Gj67xj/AM+Yfev8g9hk/wDO/u/4J1//AAsvQ/f/AL6FH/Cy9D9/++hXIf8ACmtN/wCes/8A30f8aP8AhTWm/wDPWf8A76P+NH13jH/nzD71/kHsMn/nf3f8E6//AIWXofv/AN9Cj/hZeh+//fQrkP8AhTWm/wDPWf8A76P+NH/CmtN/56z/APfR/wAaPrvGP/PmH3r/ACD2GT/zv7v+Cdf/AMLL0P3/AO+hR/wsvQ/f/voVyH/CmtN/56z/APfR/wAaP+FNab/z1n/76P8AjR9d4x/58w+9f5B7DJ/5393/AATr/wDhZeh+/wD30KP+Fl6H7/8AfQrkP+FNab/z1n/76P8AjR/wprTf+es//fR/xo+u8Y/8+Yfev8g9hk/87+7/AIJ1/wDwsvQ/f/voUf8ACy9D9/8AvoVyH/CmtN/56z/99H/Gj/hTWm/89Z/++j/jR9d4x/58w+9f5B7DJ/5393/BOv8A+Fl6H7/99Cj/AIWXofv/AN9CuQ/4U1pv/PWf/vo/40f8Ka03/nrP/wB9H/Gj67xj/wA+Yfev8g9hk/8AO/u/4J1//Cy9D9/++hR/wsvQ/f8A76Fch/wprTf+es//AH0f8aP+FNab/wA9Z/8Avo/40fXeMf8AnzD71/kHsMn/AJ393/BOv/4WXofv/wB9Cj/hZeh+/wD30K5D/hTWm/8APWf/AL6P+NH/AAprTf8AnrP/AN9H/Gj67xj/AM+Yfev8g9hk/wDO/u/4J1//AAsvQ/f/AL6FH/Cy9D9/++hXIf8ACmtN/wCes/8A30f8aP8AhTWm/wDPWf8A76P+NH13jH/nzD71/kHsMn/nf3f8E6//AIWXofv/AN9Cj/hZeh+//fQrkP8AhTWm/wDPWf8A76P+NH/CmtN/56z/APfR/wAaPrvGP/PmH3r/ACD2GT/zv7v+Cdf/AMLL0P3/AO+hR/wsvQ/f/voVyH/CmtN/56z/APfR/wAaP+FNab/z1n/76P8AjR9d4x/58w+9f5B7DJ/5393/AATr/wDhZeh+/wD30KY/xN0NFLYJx7//AFq5P/hTWm/89Z/++j/jSp8GdLJw002P94/40fXeMntSh96/yD2GTfzv7v8AglXxB8XYJYHg0eOVZj0YAn+lc74M8Kal4h1X+2dTGQr7/mGDz9a9Q0n4WaDpciyozyMP7/I/U16Pb2sNrGscKKoUY4GKWE4UzTMcVDFZ/UTUdVCOwqua4XD0nSwEdXu3uPggjt4xFEMKvQVNRRX6fGKSsj5lu+rCiiimI//U/fyiiigAooooAKKKKACiiigAooooAKKKKACiiigAooooAKKKKACiiigAooooAKKKKACiiigAooooAKKKKACiiigAooooAKKKKACiiigAooooAKKKKACiiigAooooAKKKKACiiigAooooAKKKKACiiigAooooAKKKKACiiigAooooAKKKKACiiigAooooAKKKKACiiigAooooAKKKKACiiigAooooAKKKKACiiigAooooAKKKKACiiigD/9k=;" vertex="1" parent="1">
          <mxGeometry x="537.62" y="350" width="42.38" height="50" as="geometry" />
        </mxCell>
        <mxCell id="MBUJ9Oalb3AoI1f_l5G1-12" value="" style="endArrow=classic;html=1;rounded=0;strokeWidth=2;dashed=1;fillColor=#d5e8d4;strokeColor=#82b366;" edge="1" parent="1">
          <mxGeometry width="50" height="50" relative="1" as="geometry">
            <mxPoint x="272.95" y="384.5" as="sourcePoint" />
            <mxPoint x="237.06" y="384.5" as="targetPoint" />
          </mxGeometry>
        </mxCell>
        <mxCell id="MBUJ9Oalb3AoI1f_l5G1-13" value="&lt;font color=&quot;#08a89c&quot;&gt;向上伸缩&lt;/font&gt;" style="text;html=1;strokeColor=none;fillColor=none;align=center;verticalAlign=middle;whiteSpace=wrap;rounded=0;" vertex="1" parent="1">
          <mxGeometry x="270" y="300" width="60" height="30" as="geometry" />
        </mxCell>
        <mxCell id="MBUJ9Oalb3AoI1f_l5G1-14" value="&lt;font color=&quot;#08a89c&quot;&gt;向左伸缩&lt;/font&gt;" style="text;html=1;strokeColor=none;fillColor=none;align=center;verticalAlign=middle;whiteSpace=wrap;rounded=0;" vertex="1" parent="1">
          <mxGeometry x="180" y="370" width="60" height="30" as="geometry" />
        </mxCell>
      </root>
    </mxGraphModel>
  </diagram>
</mxfile>
